<svg id="Layer_1" data-name="Layer 1" xmlns="http://www.w3.org/2000/svg" viewBox="0 0 186 86.05"><title>Specie_Logo1 copy 6_lg</title><path d="M56.49,46.38H50A15,15,0,0,1,51.42,48a13.15,13.15,0,0,1,1.76,3.15h1.25l.45,2.76h-40l.45-2.76H40.75a37.12,37.12,0,0,0-4-2.72l-3.33-2H13.32l-2,12.23H58.49Z"/><path d="M40.62,63.07h0l0,0Z"/><path d="M31.24,70h0l0,.05h0l.09,0h0l0,0Z"/><path d="M40.6,62v0h0Z"/><polygon points="40.63 62.3 40.62 62.31 40.64 62.31 40.63 62.3"/><polygon points="40.9 60.59 40.91 60.6 40.91 60.58 40.9 60.59"/><path d="M40.88,61.14v0Z"/><path d="M40.87,62.95l.06,0,0-.08Z"/><path d="M40.74,61.5l-.13,0C40.67,61.6,40.68,61.6,40.74,61.5Z"/><path d="M40.72,62l0,0,0,.07Z"/><path d="M40.65,61.41l0-.15c-.08,0-.09.11-.07.18Z"/><path d="M40.7,62l0-.1c-.06,0-.08.06-.12.11Z"/><path d="M41.62,62.35l0,.06v-.07Z"/><path d="M40.43,61s0,0,0,0h0l0,0Z"/><path d="M41.5,62.57v0h0v0Z"/><circle cx="41.67" cy="61.57" r="0.01" transform="translate(-30.84 45.14) rotate(-43.15)"/><path d="M41.66,62.49v-.06l0,0Z"/><polygon points="41.63 60.98 41.65 60.99 41.64 60.98 41.63 60.98"/><polygon points="40.85 61.07 40.88 61.11 40.87 61.06 40.85 61.07"/><path d="M40.61,61.15h0s0,0,0,0h0Z"/><polygon points="41.1 63.47 41.09 63.48 41.1 63.48 41.1 63.47"/><path d="M41,60.93h0l0,0a.06.06,0,0,0,0,0h0Z"/><path d="M35.68,68.57l0,0v0Z"/><path d="M40,60.55v.05l0,0Z"/><path d="M40,60s0,0,0,0l0,0a.12.12,0,0,0,0,0Z"/><path d="M40,60.46h.06s0,0,0,0H40Z"/><path d="M40.07,60.18l0,0,0,.09h.1A.21.21,0,0,0,40.07,60.18Z"/><path d="M40.11,60.8h0c0-.07-.06-.05-.09,0a.08.08,0,0,0,0,.12S40,60.81,40.11,60.8Z"/><path d="M40.15,60.51H40.1l0,0Z"/><path d="M37.61,59.17h0Z"/><path d="M37.89,59.22a.1.1,0,0,0,0,0v0a.1.1,0,0,0,0,0Z"/><path d="M40,59.74l0,0,0,.06h0Z"/><path d="M40,60.21c-.07-.07-.07-.07-.11,0Z"/><path d="M40,60.3h0Z"/><path d="M38.78,59.26l.15.1C38.9,59.27,38.89,59.21,38.78,59.26Z"/><path d="M38.82,59.46v0a.13.13,0,0,0,0,0,.12.12,0,0,0,0,0Z"/><path d="M38.93,59.5l-.11,0,0,0,.16.11A.06.06,0,0,0,38.93,59.5Z"/><path d="M39.78,60h0Z"/><path d="M39.44,59.63h0Z"/><path d="M35.35,59.46h0Z"/><path d="M38.05,59.16h0Z"/><path d="M39.93,60.44v-.23a.06.06,0,0,0-.06.07.09.09,0,0,1-.07.11Z"/><path d="M39.84,59.82h0Z"/><path d="M39,59.42v0h0Z"/><path d="M35.72,65.25l0,.08C35.79,65.3,35.78,65.29,35.72,65.25Z"/><path d="M39.81,60.14h0Z"/><path d="M40.3,60.61l-.09-.05C40.21,60.62,40.22,60.62,40.3,60.61Z"/><path d="M40.33,60.35l0,0h0Z"/><path d="M40.22,60.25v0h0Z"/><path d="M35.92,68.29v0h0v0Z"/><path d="M40.29,60.2c.06-.06.11-.11.09-.19S40.29,60.11,40.29,60.2Z"/><path d="M40.4,60.59h0l0,0h0A.18.18,0,0,0,40.4,60.59Z"/><path d="M40.29,60.72l0,0,.07,0Z"/><circle cx="40.46" cy="61.21" r="0.01" transform="translate(-30.47 42.44) rotate(-41.71)"/><path d="M40.42,61.35v0Z"/><circle cx="32.77" cy="59.37" r="0.01" transform="translate(-33.35 44.32) rotate(-48.28)"/><path d="M40.43,60.19l0,0v0l0,0Z"/><path d="M40.34,61.26a.3.3,0,0,0,0-.26.58.58,0,0,1,0,.09s0,0,0,0h0v.12l0,0Z"/><path d="M37.77,64.47h0l0,.06h.08S37.8,64.45,37.77,64.47Z"/><ellipse cx="40.26" cy="60.9" rx="0.01" ry="0.01" transform="translate(-31.68 48.48) rotate(-46.74)"/><path d="M45.45,59.27a.76.76,0,0,0,.12-.1l0-.06h-.27s0,0,0,0A1.35,1.35,0,0,0,45.45,59.27Z"/><polygon points="40.2 59.83 40.19 59.84 40.2 59.84 40.2 59.83"/><path d="M40.38,60.67l-.08,0h.1Z"/><path d="M40.27,61.14,40.21,61C40.19,61.08,40.19,61.14,40.27,61.14Z"/><path d="M33.82,69.65h0v0h0l0,0Z"/><path d="M35.43,68.83h0Z"/><path d="M46.63,59.39l.28.18a.19.19,0,0,1,.06.29c-.06.1-.13.2-.2.29a.17.17,0,0,1-.28,0l-.24-.23L46.1,60l.67.48a1.81,1.81,0,0,1,.09-.21,10.31,10.31,0,0,1,.77-1.12l0,0h-.19s0,0,0,0l-.23.33c-.08.1-.13.11-.23,0s-.09,0-.1-.08-.16-.09-.25-.07h0Z"/><circle cx="34.97" cy="69.15" r="0.01" transform="translate(-18.61 13.17) rotate(-16.92)"/><path d="M41.16,63.36l0-.06,0,.06Z"/><path d="M41.85,61.81s0,0,0,0h0s0,0,0,0Z"/><path d="M41.91,61.6l0,.09,0,0A.42.42,0,0,0,41.91,61.6Z"/><polygon points="41.79 62.06 41.78 62.05 41.77 62.06 41.79 62.06"/><path d="M41.84,61.48l0,0,0,0v0Z"/><polygon points="41.88 61.94 41.87 61.94 41.88 61.95 41.88 61.94"/><path d="M42,61.76l0,0v0h0Z"/><path d="M42,62.06h0l0,0,0,0a.07.07,0,0,0,0,0Z"/><path d="M42,60.94h0Z"/><path d="M41.93,61.86h0Z"/><path d="M41.53,62.64c-.11,0-.11,0-.16-.11l.09,0,.16,0c-.1-.1-.09-.17,0-.28h0v0c-.09,0-.08-.07-.09-.13s.07-.08,0-.15l-.05.13-.08-.11,0,.3s-.08,0-.09-.06-.1,0-.14,0l0,.06h0c.07.06,0,.09,0,.16v-.1c-.07.07-.18.12-.07.25l-.08,0h0s0,.07,0,.09-.06.16,0,.22a.38.38,0,0,1,.12.12.73.73,0,0,0,.41.25l-.06-.16.14-.06C41.6,62.78,41.49,62.77,41.53,62.64Zm-.09-.25h0v0Zm-.28,0,0,0h0s0,0,0,0Zm.15.05h0Zm0-.17s0,0,0,0h.07v0l-.05,0Zm.19.56h0Z"/><path d="M34.69,69.13h0v0h0Z"/><path d="M31.85,70.06v0h0A.06.06,0,0,0,31.85,70.06Z"/><polygon points="34.81 68.97 34.8 68.97 34.81 68.98 34.81 68.97"/><path d="M40.55,61.12v0Z"/><path d="M34.51,69.35h0l0,0h0A.07.07,0,0,0,34.51,69.35Z"/><path d="M34.31,69.26l0,0v0l0,0Z"/><path d="M41.83,61.22h-.06l0,0Z"/><path d="M34,69.55h0v0h0Z"/><path d="M41.94,61.12l-.1.09,0,0h0l0,.07.09-.07s0,.07,0,.12-.07.08,0,.14l.06,0h0a.14.14,0,0,1,0,0l0,0a.12.12,0,0,1,0,.05l0,0h0l0,.17h0l.09-.15v.17c.1,0,.1,0,.09-.09.11.07.1.18.13.28l.05,0,.09,0v.05l0,0,.17-.08c-.08-.09,0-.09.06-.13l-.09-.25.13.08a.48.48,0,0,1,0-.14.1.1,0,0,0,0-.11s0,0,0-.06l0,0h0c0-.1-.06,0-.09,0s-.07,0-.1,0-.05-.11-.12,0-.09,0-.13,0a.12.12,0,0,1-.14-.09Zm.11.21h0Zm.59.32h0Zm0-.35h0Zm-.11.44a.14.14,0,0,1,0,0h0v0Zm0-.47h0v0h0Zm-.3.14h0l0,0h0l.05,0h0l.1,0h0v0h0v0h0l.1,0v0c-.07,0-.13,0-.2,0h0l0,0h0l0,0h-.05l0,0Zm-.09-.23h0Z"/><path d="M42.11,60.93l.06.05S42.18,60.87,42.11,60.93Z"/><path d="M42.35,61h0v0h0A.11.11,0,0,0,42.35,61Z"/><path d="M33.7,69.69h0Z"/><path d="M32.94,69.89v0l-.07,0Z"/><polygon points="33.97 69.45 33.96 69.45 33.96 69.46 33.97 69.45"/><path d="M42.58,61.21c0-.14-.09-.12-.14-.18l0,0,.07.13C42.54,61.11,42.55,61.2,42.58,61.21Z"/><path d="M42.52,62v0Z"/><path d="M42.33,61.87h0Z"/><path d="M42.78,61.24h0Z"/><path d="M42.46,62l0,0,0,0Z"/><path d="M42.12,61.85v0h0Z"/><path d="M42.69,61.87l0,0v0Z"/><path d="M42.1,61.74l0,.08v-.08Z"/><path d="M42.72,61.9h0Z"/><polygon points="34.28 69.43 34.27 69.42 34.27 69.43 34.28 69.43"/><path d="M40.7,61.68l0,0,.07,0,0,0Z"/><path d="M41,65.63l0,0h0Z"/><path d="M40.8,60.59h0v0Z"/><polygon points="42.87 61.33 42.88 61.33 42.88 61.32 42.87 61.33"/><path d="M40.75,63a.14.14,0,0,0,0,.06h.07s0,0,0-.06l0,0Z"/><path d="M53.08,59.11a17.94,17.94,0,0,1-35.87,0h-.88a18.82,18.82,0,0,0,37.63,0Z"/><path d="M30.79,70.35s0-.1-.07,0Z"/><path d="M40.51,60.82l.09,0C40.54,60.7,40.53,60.77,40.51,60.82Z"/><path d="M40.58,60.3l0,0h0l0,0Z"/><path d="M30.81,70.39l0,0v0Z"/><path d="M40.63,61c-.1,0-.11,0-.08.13Z"/><circle cx="40.65" cy="60.47" r="0.01" transform="matrix(0.26, -0.96, 0.96, 0.26, -28.37, 83.83)"/><path d="M40.71,61.34v0l0,0Z"/><path d="M40.74,60.95l0,0h0Z"/><polygon points="40.67 61.04 40.66 61.05 40.67 61.05 40.67 61.04"/><path d="M40.6,60.78l.05,0,.12-.12C40.67,60.65,40.65,60.73,40.6,60.78Z"/><path d="M40.74,63.55l0,0v0Z"/><path d="M30.93,70.29l-.09,0,.07,0Z"/><path d="M36,65.49a.13.13,0,0,0,0,0h0v0Z"/><polygon points="31.78 70.03 31.78 70.02 31.77 70.02 31.78 70.03"/><path d="M40.69,63.5l0,0s0-.08,0-.12Z"/><path d="M41.15,63.25h0v0Z"/><path d="M40.69,63.14l-.1.1.16.11Z"/><path d="M41,63.41v0h0Z"/><path d="M41.09,63.14s-.05-.06-.07-.09-.07,0-.11,0l.08.18-.24-.09s0,.07.05.08.09,0,.06.1l0,0a1,1,0,0,0,.17-.08A.11.11,0,0,0,41.09,63.14Z"/><path d="M40.86,63.6h0Z"/><path d="M40.5,60.28l0,0-.05,0Z"/><path d="M31.2,70.29v0h0v0Z"/><ellipse cx="40.52" cy="60.66" rx="0.01" ry="0.01" transform="translate(-32.02 52.95) rotate(-50.19)"/><path d="M40.57,60.2l0,0h0Z"/><path d="M40.55,60.42l0,.16C40.62,60.54,40.57,60.48,40.55,60.42Z"/><polygon points="31.7 69.96 31.69 69.95 31.69 69.96 31.7 69.96"/><path d="M31.62,70h0Z"/><path d="M35.63,65.62h0l0,0h0v0h0v0Z"/><path d="M36.05,60.38l0,0h0l0,0a.13.13,0,0,0,0,0l0,0s0,0,0,0h0Z"/><path d="M36,60.38h0v0h0l0,0Z"/><path d="M20.92,59.63h0c0,.15,0,.16-.14.18a5,5,0,0,1-.54.06A.54.54,0,0,1,20,59.8s0,0,0-.07a.63.63,0,0,1,0-.1h0a1,1,0,0,1,0-.21s0,0,0-.06,0-.05-.07-.09,0,.09,0,.14a1.17,1.17,0,0,1,0,.49l-.6.06h-.06c-.14,0-.15,0-.16-.19a.84.84,0,0,1,.06-.44l-.23-.08.09,1a3.36,3.36,0,0,1,1-.16,3.82,3.82,0,0,1,1.05,0l0-.35h0c0-.17,0-.33,0-.5a.27.27,0,0,0,0-.1H20.8l0,.08v0l.05.15h0A.32.32,0,0,1,20.92,59.63Z"/><path d="M29.3,61.44l0,0v0Z"/><polygon points="28.16 60.34 28.15 60.34 28.15 60.35 28.16 60.34"/><path d="M36,61.46h-.09v.07h0l.08-.06Z"/><path d="M37.94,59.26h0l-.05,0,0,.1h0l.08-.06Z"/><polygon points="26.77 64.57 26.76 64.57 26.77 64.58 26.77 64.57"/><path d="M27.46,60.67h0l0,0h0Z"/><path d="M39.33,73.11l-.08.11c.08.06.13,0,.2,0s.09,0,.07-.08-.08,0-.12,0S39.34,73.09,39.33,73.11Z"/><path d="M47.81,61.18a1.82,1.82,0,0,0,.25.14,2.24,2.24,0,0,1,.41-.74c.15-.24.32-.46.49-.7a1,1,0,0,0-.56-.3.38.38,0,0,0-.48.39c0,.11,0,.22,0,.34l-.12,0a.38.38,0,0,0-.32.44A.63.63,0,0,0,47.81,61.18Zm.35-1.39a.38.38,0,0,1,.51-.05.17.17,0,0,1,0,.25l-.06.09-.06.09h0l-.14.21a.12.12,0,0,1-.17,0,.3.3,0,0,1-.2-.23A.52.52,0,0,1,48.16,59.79Zm-.48.87a.36.36,0,0,1,.48-.23s0,0,.07.09H48a.23.23,0,0,0-.18.33c0,.07.08.08.13,0l.15-.23.06-.07h0s0,0,0,0-.2.31-.32.46-.11,0-.16,0A.37.37,0,0,1,47.68,60.66Z"/><path d="M29.22,60.34h0v0Z"/><path d="M48.37,60.29l.13-.19h0l.12-.19c0-.06,0-.1,0-.12a.26.26,0,0,0-.26.07.38.38,0,0,0,0,.41S48.33,60.34,48.37,60.29Z"/><path d="M48.84,61.81a.83.83,0,0,1,.07-.23c.16-.25.33-.49.49-.73l.34-.46-.16-.12a8.66,8.66,0,0,1-1,1.44Z"/><path d="M28.42,60.57l0,0h0Z"/><path d="M50.42,61a.22.22,0,0,1,.1.38l-.21.3c-.12.17-.22.36-.34.52a2.87,2.87,0,0,1-.27.28l.22.11a12.73,12.73,0,0,1,.93-1.42c-.16-.11-.32-.2-.46-.31a.24.24,0,0,0-.35,0l.2,0Z"/><ellipse cx="28.31" cy="60.48" rx="0.01" ry="0.01" transform="translate(-36.15 43.02) rotate(-49.76)"/><path d="M40.21,61.42h.09c0,.09.08.1.1.16l0-.05c0-.05-.09-.1,0-.18s-.12,0-.18,0l0,.1h0Z"/><path d="M22.31,66.77h0s-.07-.08-.14,0,.14.2.21.31a1,1,0,0,1,.1.22.11.11,0,0,1,0,.1l-.53.37a.13.13,0,0,1-.11,0,.47.47,0,0,1-.19-.29.55.55,0,0,0-.09-.24s-.13,0-.2,0l0,0a3.08,3.08,0,0,0,.31.45,2.29,2.29,0,0,0,.34.46,1.3,1.3,0,0,1,.43-.43c.07-.05.16-.09.23-.15a4.94,4.94,0,0,1,.8-.54l.23-.13-.18-.23-.67.5c-.11.08-.15.06-.23,0l-.21-.31Z"/><path d="M22.42,65l-.09-.24-.41,0-.24,0a.23.23,0,0,1-.18-.14c-.07-.15-.12-.31-.19-.46a.24.24,0,0,1,0-.3,2.12,2.12,0,0,1,.32-.31s.09-.09.08-.12,0-.17-.12-.2c-.49.56-1,1.14-1.49,1.68C20.91,65,21.66,65,22.42,65ZM21,64.26c.09-.08.14-.07.19,0h0a.38.38,0,0,1,.13.33l-.13-.33h0a1.31,1.31,0,0,0-.31.33c.09.07.18,0,.26.05h.16s.06,0,.06,0a.13.13,0,0,1,0,.07l-.09,0h-.43a.12.12,0,0,1-.09-.22A4,4,0,0,1,21,64.26Z"/><path d="M38.78,64.53l-.06,0h.08l0,0h0Z"/><path d="M22.34,66.77h0Z"/><path d="M25.4,73.25A17.42,17.42,0,0,0,52.58,59.11H47.86l0,0a4.67,4.67,0,0,0-.29.37q-.24.34-.46.68a3,3,0,0,0-.15.29c0,.09-.08.1-.17.07l-.13-.07-.5-.36s-.08-.05-.06-.12.08-.13.14-.17a.13.13,0,0,1,.17,0c0,.05.08.11.14.16s.14.08.22,0l.16-.24a.07.07,0,0,0,0-.12l-.22-.14s-.08-.06-.05-.11h0s0-.05,0-.07a.23.23,0,0,1,.33,0l.09.09c.08.07.1.06.15,0l.17-.25h-1.3a3,3,0,0,0-.32.55c0,.1-.1.11-.2.05l-.36-.25a.45.45,0,0,1-.08-.13,3.64,3.64,0,0,0,.5.31,1,1,0,0,1,.07-.19l.22-.34h-.17l-.17.25c-.08.1-.16.1-.25,0a.42.42,0,0,1-.12-.26H45a.5.5,0,0,0,0,.14l0,.09a.44.44,0,0,1-.14-.23H42.1l.06.1a5.8,5.8,0,0,1,.23.57,2,2,0,0,0,.63.89.79.79,0,0,1,.26.44,1,1,0,0,1-.45,1l-.29.15a.39.39,0,0,0-.2.2c-.09.19-.19.38-.28.57a.24.24,0,0,1-.13.13l-.15.07a.34.34,0,0,0-.19.23.77.77,0,0,1-.33.44,5.78,5.78,0,0,0-.5.45.41.41,0,0,0-.07.09c-.08.14-.08.22,0,.33s.28.22.42.33a.89.89,0,0,1,.21.22.53.53,0,0,1-.11.68,2,2,0,0,1-.74.49,8.5,8.5,0,0,0-1,.47,3.4,3.4,0,0,1-1.09.41c-.19,0-.37.08-.55.12a.69.69,0,0,0-.33.17c-.05.05-.12.09-.18.14a2.35,2.35,0,0,0-.38.33,3,3,0,0,1-1.06.81,14.37,14.37,0,0,1-1.39.59l-.49.22a5.47,5.47,0,0,1-1.25.34l-.46.07a3.67,3.67,0,0,0-.8.2l-.43.15a1.5,1.5,0,0,1-.75,0c-.46-.09-.92-.17-1.37-.28a7.81,7.81,0,0,1-1-.32,2.4,2.4,0,0,1-.67-.43h.07a2.42,2.42,0,0,0,.72.38c.29.11.58.2.88.28s.43.09.64.13h0l.68.15c.08,0,.17.06.24,0l.1,0,0-.08-.26-.14c.07,0,.1,0,.12,0s.1,0,.16,0,.19-.08.29,0,.06,0,.06-.08h0l.14,0h0V70l.05,0h0l0,0h0l0-.05h0l-.08-.14H31c0,.05,0,.09-.08.06h0c0,.06,0,.05-.08.06h0l0,0h0l0,0v0l0,0h0l0,0h0s-.1,0,0-.09h0c.05-.05.08,0,.1,0h0l.07-.1h0c.12,0,.12,0,.23-.14l.11.2c-.06,0-.13,0-.11.07s0,0,0,.05h0l0,0h0l0,0h0v0h0l.07,0h-.11l0,0h0l0,.06h0l.22-.07,0-.07c.07,0,.15,0,.16-.06h-.17l.12-.1.05.12h0l.06.08s0-.09.08,0a1.09,1.09,0,0,0,.08.12l.06-.08h0l0,0L32,70h0L32,70h0l0-.1h0s0,0,0-.06h0v.06h0c0,.07.12,0,.18.08h0V69.9s.12,0,.12.05l.06-.08h0l0,0h0v0h0l.1.09.1-.08.07,0h0c0-.08,0-.08.15-.05h0a.24.24,0,0,1,0-.07.33.33,0,0,1,0-.08l0,.07h0c.13,0,.14,0,.19-.1h0l0,0h0l.05-.08c0,.05,0,.07,0,.1h0l.05,0h0l.05-.1.23.13h0v-.12h0l-.14-.13h0c.06,0,.05,0,.08-.06h0l0,.11.11-.1h.06v0h-.06l0,.14h0l.09,0c-.07-.06,0-.08,0-.13l.09.13h0l.08,0h0s0-.06,0-.08.06-.06,0-.1l0,0,0,0c.12.08.18,0,.26-.08h0v0a.12.12,0,0,1,0,0l0,0v0h0a.26.26,0,0,0,.05.06s.06,0,0,0h0c.07-.1.07-.1,0-.2l.09,0c.05,0,.09,0,.12,0h0c-.07-.05,0-.08,0-.11s0,0,0,0a.25.25,0,0,1,0,.07h0l.14,0a.48.48,0,0,1,.06-.14c.07-.07.05.08.13,0l0-.2L35,69l-.09.09c.05,0,.1,0,.1,0s.08-.06.14-.07,0,0,0-.06h0v-.07h0l0-.09c.06,0,.1,0,.15,0s.12-.09.07-.18,0,0,0,0h0l0,.07.14,0h0l.08-.11h0v0h0l.06,0h0l.09-.06h0l-.09-.11c.07-.06.08,0,.1,0h0l.05-.05a.06.06,0,0,0,0-.1h0l0,0v0h.05c.08,0,.08.08.15.08l0-.11c0-.06,0-.06.06-.05h0l.06-.09a2,2,0,0,1-.2-.27,1.48,1.48,0,0,1-.19-.58,1.71,1.71,0,0,0,0-.43.07.07,0,0,1,0,0,.36.36,0,0,0,0-.32.22.22,0,0,1,0-.06h0v0h0a.57.57,0,0,0,0-.08l0-.15h0l0-.09h0c0-.07,0-.15-.07-.21s0,0,0-.06h0v0h0v0h0c0-.09,0-.18,0-.27s0,0,.06-.07h0s.11,0,.1-.09h0a.3.3,0,0,1,.1,0,.11.11,0,0,0,.13,0h0l-.1-.07h.18l-.07.08h0l.13,0a.13.13,0,0,1,.09,0s0,0,0,.06-.09.13,0,.2a0,0,0,0,1,0,0c-.1.05-.05.14-.06.21a2.64,2.64,0,0,0,.19,1.05.18.18,0,0,0,0,.06s0,0,.06,0a.08.08,0,0,0,.05-.05.34.34,0,0,0,0-.14,2.84,2.84,0,0,0-.08-.38.84.84,0,0,1,0-.36h0l0,0h0v0h0c.09,0,.12.07.15.14l.07.16c0-.09.09-.1.12-.15s.09,0,.09,0-.05,0-.09-.06H36.7l0,0h0a.36.36,0,0,0,.11-.21s-.07-.08,0-.06.06,0,.12-.06l-.12,0c0-.06.08-.14,0-.17a.29.29,0,0,1,0-.06s.06-.05.09,0a.31.31,0,0,0,.06.07l0,0h0s0-.08,0-.12,0-.07,0-.13c.1,0,.15.09.1.16l-.06.08h0l.08,0h.05l.09,0-.12-.17a.12.12,0,0,0,.18,0c0-.05,0-.11-.07-.13s-.05-.05-.08-.09l.14-.06v.09l.1-.14h0l-.09,0c.1-.11.1-.11.2,0h0v0c0-.15,0-.15.14-.19h0l0-.06,0,0h0c.05-.08,0-.11-.07-.17h.16v.14l.06,0h0s.06,0,.05,0,0-.12-.06-.18,0,0,0,0,.06,0,.09,0l.16.26-.1.1s0,0,0,0,.07,0,.13,0-.12.07-.09.16-.07.08-.11.13l0,0a.92.92,0,0,1-.21.33,1.25,1.25,0,0,0-.32.45.82.82,0,0,1-.31.38.75.75,0,0,0-.26.33c0,.06,0,.14,0,.21a.57.57,0,0,1-.17.25h0v0h0l0,.06h0l0,.09h0L36.53,67l-.1.16.08,0a0,0,0,0,1,0,.08l-.15.05.12,0h0v.13l.14,0h0l0,.05a.23.23,0,0,0,.18.07c.05,0,.11,0,.17.07H37v0h0v0h0s0,.06.08,0l.28-.24,0,0c.1.07.17,0,.25-.07a.71.71,0,0,0,.21-.09s.11-.09.16,0h0s.12,0,.15-.07h.17c0-.09.07-.08.11-.1s.3-.1.44-.15h0a1,1,0,0,1,.22-.1c.07,0,.09-.07.12-.11h0v0h0v0h0s.06,0,.07,0l.39-.22s0,0,0-.05h0c.06,0,.14,0,.18-.06s.08,0,.13,0a.34.34,0,0,1,.2-.12s.06,0,.09-.08h0v0h0v0h0a1,1,0,0,0,.14-.11s0-.07,0-.1h0l0,0h0V66h0s.1-.06.09,0,0,0,0,0l.1-.06,0-.06h0s-.08,0-.08-.09l.08.09h0c0-.07.06-.1.06-.15h0l.09,0h0s.05,0,0-.08a.57.57,0,0,0-.1-.08l.08,0h0l0,0,0,0-.05,0h0l.12,0a.56.56,0,0,0-.26-.46v.09l-.15-.06c0,.05,0,.07-.05.06s0,0,0-.07h0l0,0h0v0h.08s-.06-.08-.09-.09-.22-.15-.35-.18,0,0,0,0h0c-.05-.11-.17-.17-.2-.29h0a1.43,1.43,0,0,0-.16-.39c0-.05,0,0,.05,0s0,0,0,0c-.06-.16-.15-.19-.28-.07a.93.93,0,0,0-.33.57c0,.07,0,.15,0,.22s0,.09-.08.08a.45.45,0,0,0,0,.09h0s.1,0,.08.1a.14.14,0,0,1-.08-.1h-.07l0,0c-.05,0,0-.12-.09-.12a.53.53,0,0,1-.14,0h0l0-.13h0c0-.07.06-.06.06-.11s-.1,0-.06-.1h0s-.08-.07,0-.11h0l.06.08h0s0-.08,0-.11,0,0,0,0,0,0,0-.06h0a.62.62,0,0,0,.1-.12s0-.06-.08-.1,0,0,.07,0,0,0,0,0a.71.71,0,0,1,0-.12h0a.14.14,0,0,1,0-.16h0a.15.15,0,0,1,0,.16h0c.13,0,.14-.15.16-.27l-.15,0h0s.05-.07.09-.08.14-.09.16-.18h0l0,0h0l-.16,0c.06-.07.07-.07.16,0h0l0,0h0l0-.07,0-.13h0l0,0v0h0a.36.36,0,0,1,0-.12s0,0,.07-.05,0,0,.05.06a.52.52,0,0,1,0,.11l.1-.09h0l0,0h0l0-.1h0l-.09-.07c.06,0,.11,0,.09.07h.09a.17.17,0,0,0,.09,0l-.13-.06v0l.09,0a.13.13,0,0,0,.08,0s0,0,0-.07-.06-.12.09-.19c-.07.07-.09.12,0,.15s.09-.06.14-.07a.5.5,0,0,0,.07.22h0l0-.12a.13.13,0,0,1,0,.16h0l0,.1h0l.05,0h0l0-.12,0-.07h0l0,0h0l0,0h0a.45.45,0,0,0,0-.1.1.1,0,0,1,.07-.13h0c0-.11,0-.12-.07-.11h0c0-.07.12,0,.19-.05h.12v-.06h0l0,0h0l-.05,0h-.05v0h.05c0-.06-.08-.11,0-.18h0s0,0,0-.07h.05l-.05.06h0c.11,0,.12,0,.11-.1a.83.83,0,0,0,0-.13h0l0-.09h-.17v0h0l-.07-.08h0a.17.17,0,0,1-.17-.15h0c-.06,0-.07,0-.06-.07s.07,0,.11,0h0l0,0h0c.11,0,0,0,.06-.08h0s-.1-.07,0-.14,0,0,0-.06l-.08-.09-.08.06h0l0,.09h.11a.13.13,0,0,1,0,0l-.05.07,0-.08s0,0,0,0h0l0-.09h0c0-.08,0-.13-.1-.12s0,0-.07,0v0H40c-.08-.1,0-.18,0-.3l-.11.1c0-.16-.12-.24-.09-.38h-.07l-.08.06h0v0h0v0h0l-.05-.1.13,0h0c0-.07-.09-.09-.05-.16l.08-.17c-.13,0-.15,0-.11-.24l-.24.1c0-.18.15-.11.21-.19l-.11,0s-.09,0-.12,0,0-.08,0-.11a.48.48,0,0,0-.12-.09l0,0h0l0,0,0,0h-.06l-.05,0,0-.08h0l.08.05h0l0-.09h0a.22.22,0,0,1,0-.07.27.27,0,0,1,0-.08h-.06a1.68,1.68,0,0,1-.08.17s0,0-.07,0h0c-.07.06-.11,0-.17,0l0,.07-.09-.05c-.07-.06-.08-.07-.17-.06h0l0-.06h-.29v.09h0l.05,0h.11s0,0,0,0h0l0,0h-.05l-.06,0h0s-.07,0-.11,0h0s0-.12-.06-.13a.07.07,0,0,1,0,0s0-.07,0-.08a.75.75,0,0,0-.13-.08l0,0h0c.1.06.06.17.07.26l-.07-.09s-.06.06-.06,0a.36.36,0,0,0,0-.08h0c0,.07,0,.06-.07,0s0-.07-.07,0h0v0h0l0,.08c-.07,0-.05,0,0-.08h0v0h0l-.24-.09-.08-.06.1,0h-.16l0,0h0l0,0H35.8l0,.06.08,0h0a.58.58,0,0,1,.14.13h0l.16,0s-.07.08,0,.11.11,0,.11.11h0l.06,0h0l0,0c0,.05,0,.12.05.13v0h0s.1,0,.08.06,0,0-.07.07l.07.06c.07.07.07.12,0,.22s0,0,0,.06h0l0,.06h0c-.09,0-.09,0,0,.13h0a.65.65,0,0,0,0,.13s0,0,.06,0V60.5c.08,0,.08,0,0,.18l-.07,0a.14.14,0,0,0,0,.16c0,.06,0,.06-.07,0s0,0-.05,0,.12.08,0,.13-.13.16-.12.27a0,0,0,0,1,0,0c-.15,0-.1.15-.08.25s-.08,0-.08-.07,0,0-.07,0h0c0,.06,0,.09-.08.06h0l-.18,0a.19.19,0,0,0,.13.12s0,0,0,.07h0v0h0v0h0l-.16-.1s0,0,0-.05-.06,0-.08-.07.12,0,.17,0-.09-.19-.15-.27,0-.12.06-.16l-.1-.05a.12.12,0,0,1,0,0c.1-.08,0-.13,0-.19a1.48,1.48,0,0,0-.14-.27,1,1,0,0,0-.46-.36,1.82,1.82,0,0,1-.18-.1.32.32,0,0,0-.31,0c-.1.05-.19,0-.32,0a.33.33,0,0,1,.25-.12,1.61,1.61,0,0,1,.51,0c.05,0,.12,0,.15.06l.06,0a.58.58,0,0,1,.16.05,1.88,1.88,0,0,1,.38.36.14.14,0,0,1,0,.07.45.45,0,0,0,.13.28s0,0,0,.07l-.05,0-.05,0,.06.17.09-.06,0,.05s-.06,0,0,.07A.11.11,0,0,0,36,61a.47.47,0,0,0,.11-.07h0s0-.1,0-.14h0l-.06,0h0v-.11c.13,0,.13,0,.21,0h-.11l.05-.09-.09-.1h0s-.07.05-.09,0a.66.66,0,0,1,0-.15l.2,0-.1-.05h0a.14.14,0,0,1-.16-.07l-.25-.34,0,0c-.12,0-.14-.13-.16-.23l-.08,0,0-.08h0l-.05,0h0l0,0v-.06h0l-.18,0a.92.92,0,0,0-.39,0l-.29,0h0l.21-.14a.37.37,0,0,0,.06-.08s-.05,0-.08,0a.05.05,0,0,1-.06,0h-.8s0,0,0,.05.06.06.06.08,0,.08.05.11,0,.09,0,.13.12.18.05.3a.09.09,0,0,0,.07.13l.08,0s0,0,0,0a.32.32,0,0,0-.14.24c0,.05,0,.15-.13.14s-.08.11,0,.18l0,0s0,0,0,0l.07,0s0,.07,0,.08,0,.11,0,.14,0,.05,0,.08l-.16.1s0,.06,0,.07a.12.12,0,0,1,0,.15.29.29,0,0,0,0,.29.82.82,0,0,0,.06.13.07.07,0,0,1,0,.1c-.05,0-.05.05,0,.14-.17-.05-.25-.2-.36-.32,0,0,0,.07,0,.09l-.07,0s0,0,0-.06-.05-.24,0-.36a.08.08,0,0,0,0,0,1.87,1.87,0,0,1,0-.43s.12-.05,0-.11,0-.07,0-.1a.43.43,0,0,0,0-.14.56.56,0,0,0-.07-.22.24.24,0,0,1,0-.17L33,60l-.15-.24h0l.05-.11H32.8a.14.14,0,0,1,0,0,.13.13,0,0,0,0-.17.15.15,0,0,1-.08-.11s0,0-.06,0l0,0s0,0,0,0l0-.12h-.25a.47.47,0,0,1,.08.26s0,0,0,0a.59.59,0,0,0-.07-.1l-.11-.07h0s-.08,0-.1-.06a.2.2,0,0,0,0-.07h-.32c.05.09.11.18.16.27a.45.45,0,0,1,0,.51.82.82,0,0,0-.08.14.29.29,0,0,0,0,.26.52.52,0,0,1,0,.13c0,.12,0,.12.15.09s0,.13,0,.19a.43.43,0,0,1-.3.4h-.06c.06-.15.18-.28.14-.46-.06.06-.09.14-.2.15s-.14,0-.12-.14,0,0,0-.05a1,1,0,0,1,0-.1h0l0,0h0v0h0s0,0,0-.07a.84.84,0,0,1,.17-.52.73.73,0,0,0,.08-.16.55.55,0,0,0,0-.15h0c0-.09-.12-.15-.12-.26s0,0-.07,0h0l-.07-.05s0,0,0,0,0-.08,0-.11H31s0,.07-.06.1h0l0,0h0s0,0-.06,0l-.06-.08h-.24l0,0h0v0h-.71a.61.61,0,0,1,.05.28,3,3,0,0,0,0,.38.26.26,0,0,0,.19.23l.41.16s0,0,.05,0-.06,0-.08,0l-.22-.08-.1,0a.38.38,0,0,1-.28-.3c0-.09-.06-.17-.07-.26s0-.31-.06-.46H28.64l0,0h0l0,0H28v0c.08.13.15.26.22.39a.5.5,0,0,1,0,.16L28,59.45h0s0,0,0,0a.33.33,0,0,1-.14-.2s0,0,0,0h0a.07.07,0,0,0,0-.06h-.39a.22.22,0,0,1,0,.16l-.05-.12v0h-2.1l-.17.26a1.43,1.43,0,0,0-.12.21c-.07.17-.14.35-.2.53s-.1.39-.16.58-.12.31-.18.47l-.09.2h0l.08-.25c.12-.37.24-.75.37-1.12a3.67,3.67,0,0,1,.21-.52c.06-.11.13-.22.19-.32h-4s0,0,0,0q0,.42.08.84c0,.13,0,.17-.14.15a4.31,4.31,0,0,0-.92,0l-.55.06a4.45,4.45,0,0,0-.44.11c-.16,0-.21,0-.23-.14s-.06-.62-.08-.93c0-.15.06-.2.2-.16l.12,0a.19.19,0,0,1,.13.23c0,.1,0,.19,0,.29s0,.12.11.11l.51,0c0-.09,0-.16,0-.24s0-.14,0-.21,0-.2.19-.13.21.12.18.32,0,.24.21.23l.34,0a.72.72,0,0,0,.16-.06h0a.3.3,0,0,1,0-.24h0l-.05-.15v0l0-.08H17.7a17.33,17.33,0,0,0,7.7,14.14Zm13.84,0h0a.18.18,0,0,1,0,0c0-.23,0-.24.28-.26l.14,0c.12,0,.12,0,.17.1h0c-.07.06-.16,0-.23.05s0,0,0,.07,0,0,.07,0h0l.18,0s0,0,.07,0,0,.05,0,.06l-.46.14C39.28,73.35,39.27,73.33,39.25,73.22Zm.42-.86h0v.09h0l.06.1h0l0-.12h0v-.09Zm1.26-.59,0-.06,0,0,0,0,0,.06,0,0Zm9.13-11.08c.14-.15.19-.16.36-.05l.53.35c.14.1.15.17,0,.3a6.85,6.85,0,0,0-.64.87,1.47,1.47,0,0,0-.23.43c0,.12-.12.15-.23.08l-.17-.12c-.11-.09-.12-.16,0-.25a8.91,8.91,0,0,0,.8-1.12.34.34,0,0,0,0-.07l-.4-.15C50,60.88,49.94,60.82,50.06,60.69Zm-.6-.44c.09-.17.12-.17.27-.07l0,0h0l.05,0c.12.08.13.16,0,.28s-.24.31-.35.46-.18.24-.26.37-.17.3-.25.45-.15.16-.27.07h0c-.23-.17-.23-.2,0-.41A4.92,4.92,0,0,0,49,61l.33-.5C49.37,60.43,49.41,60.34,49.46,60.25Zm-1.67,0,.1,0a.73.73,0,0,1,0-.42.51.51,0,0,1,.49-.33,1,1,0,0,1,.44.14l.26.17a.17.17,0,0,1,0,.29,1.64,1.64,0,0,0-.21.24q-.24.34-.46.69a3,3,0,0,0-.18.34c0,.1-.08.13-.19.09a.78.78,0,0,1-.2-.11,1.21,1.21,0,0,1-.32-.32A.5.5,0,0,1,47.79,60.22Zm-2.87,8.44c.08,0,.12,0,.14-.09a.92.92,0,0,1,.18-.37.73.73,0,0,1,1.1-.08c.22.24.47.46.71.68a2.78,2.78,0,0,0,.3.22c.13.09.14.18,0,.29a2.08,2.08,0,0,1-.2.19c-.09.07-.17.06-.22,0a2.74,2.74,0,0,0-.51-.64c-.13-.15-.28-.29-.42-.43a.36.36,0,0,0-.42-.08.47.47,0,0,0-.29.61.92.92,0,0,0,.17.23l.67.65a2.19,2.19,0,0,0,.24.17c.12.09.13.14,0,.25a1.6,1.6,0,0,1-.19.2c-.11.09-.18.07-.25,0a2.88,2.88,0,0,0-.48-.59c-.15-.16-.29-.33-.43-.49h0L45,69.17h0L44.69,69a.45.45,0,0,1,.29.19h0l.12.12h0c.11.1.23.19.33.3l.69.75h0c.18-.23.17-.22,0-.42s-.31-.29-.46-.44l-.31-.32a.53.53,0,0,1-.13-.22.32.32,0,0,1,0-.37c0-.23.23-.3.39-.39h0a.36.36,0,0,1,.32.06,1.73,1.73,0,0,1,.25.21c.2.2.41.4.6.61a3.56,3.56,0,0,1,.27.38l.21-.27L47.05,69l-.13-.12-.23-.24-.41-.42h0L46,68a.14.14,0,0,0-.08,0,.3.3,0,0,0-.13,0c-.11.06-.26,0-.36.12a2,2,0,0,0-.2.21,1.2,1.2,0,0,0-.1.24s0,.07,0,.11-.06.13-.19.07a.11.11,0,0,0-.09,0l-.17.11C44.69,68.71,44.79,68.64,44.92,68.65Zm-.67.6a.13.13,0,0,1,.1.05,10.43,10.43,0,0,0,.93,1.28.33.33,0,0,0,.26.17.34.34,0,0,1,.15.05.11.11,0,0,1,0,.19,3,3,0,0,1-.33.23.16.16,0,0,1-.12,0L44.67,71l-1-.33-.11,0,.25.34.26.33a3,3,0,0,0,.38.4c.12.12.11.18,0,.28l-.18.11c-.1.05-.17,0-.21-.06a4.81,4.81,0,0,0-.43-.72h0v0L43.31,71l0,0a1,1,0,0,1,.22.34l0,0h0c.12.05.16.18.23.27a5.1,5.1,0,0,1,.28.45l.21-.16-.38-.48-.21-.28-.26-.34a.59.59,0,0,1-.07-.14c0-.08,0-.12.08-.09a.12.12,0,0,0,.1,0h0c.12.14.3.11.45.17a4.29,4.29,0,0,0,.71.22h0s0-.06.06,0h0l0,.05h0c.07,0,.14.09.22,0h0l0,0,0,0h0L45,71l.11.05h0l0,0h0a.29.29,0,0,0,.28-.14s0-.07,0-.07-.19-.11-.26-.2l-.38-.47a.45.45,0,0,1,0-.09h0l-.08-.06h0v0h0l-.29-.36a.28.28,0,0,1,0-.07l-.11-.25-.29.16A.63.63,0,0,1,44.25,69.26Zm.42,1.16a.39.39,0,0,1-.16-.23h0L44.4,70,44.34,70h0l.06.08a.16.16,0,0,0,.1.14h0A.41.41,0,0,1,44.67,70.42Zm-.47-.64h0A.24.24,0,0,0,44,69.6l.19.17Zm-1.32.6c0-.1.06-.14.12-.19a.26.26,0,0,1,.32,0,5.5,5.5,0,0,0,.68.21l.59.16a.84.84,0,0,1,.18.08.07.07,0,0,1,0,.06.07.07,0,0,1-.06,0l-.17,0-.13,0h0c-.06,0-.11-.07-.17,0h0l-.74-.24a2.36,2.36,0,0,1-.32-.12.12.12,0,0,0-.16,0l-.16.12h0l0,0h0v0h0Zm.4.52,0,0,0,0,0,0Zm-.1-.14,0,0h0Zm-.06-.09,0,0L43,70.56,43,70.48h0l.06.08.06.08ZM42,70.81l.25-.15c.09-.05.14,0,.18.06a4.9,4.9,0,0,0,.56,1c.12.2.26.38.39.58l.09.09c.07.08.08.16,0,.22a1.53,1.53,0,0,1-.29.17c-.09,0-.15,0-.19-.09h0l0-.09-.1-.26-.29-.49c0-.08-.09-.17-.13-.26h0l0-.06,0-.06,0-.06h0l0,0h0v0h0l0,.06,0,.06,0,.06h0a.78.78,0,0,1,.09.11l.29.52a.57.57,0,0,1,0,.12.24.24,0,0,1,.1.26s0,.05,0,.09h0s.08,0,.12,0l.16-.16a.07.07,0,0,0,0-.11l0,0a4.35,4.35,0,0,1-.54-.81c-.14-.21-.25-.43-.37-.65h0l0-.06h0c0-.08-.05-.06-.11,0l-.22.09C42,70.85,42,70.82,42,70.81Zm.26.46h0l0-.06h0l0,0h0v0h0l0,.06Zm-1.45.16a1.73,1.73,0,0,1,.25-.12.12.12,0,0,1,.18.09,7.25,7.25,0,0,0,.51,1.13c.05.12.12.23.17.35s.07.09.14,0l.3-.21c.14-.1.21-.07.25.1s0,.08,0,.13a.17.17,0,0,1-.09.19l-.21.11-1,.49a.68.68,0,0,1-.17.06c-.08,0-.12,0-.1-.11h0a.31.31,0,0,1,0-.3.22.22,0,0,1,.11-.06l.25-.06.17-.06-.34-.81v0l0-.11,0,0,0,0,0,.11v0a1.35,1.35,0,0,1,.12.18c.09.18.17.36.26.54a.46.46,0,0,1,0,.11c0,.07,0,.12-.08.12s0,0,0,.05h0v0h0l0,0,.42-.21.22-.13h0l0,0h0v0h0c.17,0,.23-.08.24-.22s-.12,0-.17.07-.16.11-.24.15-.17,0-.22-.1-.15-.32-.23-.48l-.12-.24h0L41.32,72l-.19-.44c-.06-.13-.08-.15-.22-.1l-.15,0S40.8,71.43,40.82,71.42Zm.27.68h0l0,0h0Zm-2,0,.7-.21.11,0c.07,0,.11,0,.12.09a3,3,0,0,0,.07.36q.19.63.4,1.25a2.53,2.53,0,0,0,.15.29c.05.11,0,.13-.07.18l-.24.09-.57.18-.14,0a.14.14,0,0,1-.18-.15.88.88,0,0,1,0-.18c0-.12.06-.14.17-.15h.26c.16,0,.17,0,.14-.2a2.55,2.55,0,0,1-.08-.42.53.53,0,0,1,0,.09c0,.18.09.35.14.53s0,.13.16.1l.15-.05v0h0a5.44,5.44,0,0,1-.27-.76h0c-.07-.19-.14-.38-.19-.58a2.53,2.53,0,0,1-.06-.36c0-.12-.06-.16-.18-.14a2.25,2.25,0,0,0-.25.08l-.51.15a.17.17,0,0,0-.07.07.84.84,0,0,0-.05.13C38.83,72.15,38.84,72.14,39,72.08Zm.52,0c0,.06,0,.1,0,.12l-.61.3a.45.45,0,0,1-.12,0A1.61,1.61,0,0,1,39.56,72.08ZM36.9,73.44h0a.87.87,0,0,1,.25-.69,1.07,1.07,0,0,1,.57-.33l.51-.1c.15,0,.18,0,.19.17s0,.48.08.72.08.48.13.72a4.47,4.47,0,0,0,.13.43c0,.11,0,.16-.08.19a1.67,1.67,0,0,1-1.07,0,1.09,1.09,0,0,1-.73-1.06A.31.31,0,0,1,36.9,73.44Zm-2.64-.09h0a.45.45,0,0,1,.14-.46.9.9,0,0,1,.88-.17c.12,0,.14.08.15.2a1.8,1.8,0,0,1,0,.21s0,.08,0,.08a.13.13,0,0,1-.09,0A.44.44,0,0,0,35,73a.26.26,0,0,0-.26.15.25.25,0,0,0,.07.29l.21.15a3.62,3.62,0,0,1,.36.3.56.56,0,0,1,.12.56.73.73,0,0,1-.86.53l-.06,0c-.23,0-.29-.12-.23-.42,0-.1.08-.12.17-.08l.08,0a.64.64,0,0,0,.2,0,.24.24,0,0,0,.21-.38l0,0h0l-.54-.4s0,0,0-.06h0l0-.06,0-.06,0-.11Zm-1.47,1c0-.26.08-.52.12-.78S33,73.16,33,73a1,1,0,0,1,0,.16c0,.31-.08.62-.12.93,0,.13,0,.27,0,.4a.18.18,0,0,1-.13.18h0v0h0v0h0l-.48-.15-.14.17.06,0a2.63,2.63,0,0,1,.67.06l.3.05h.4a.18.18,0,0,0,.1,0s0-.06,0-.09-.06,0-.08,0a1.13,1.13,0,0,1-.37,0c-.08,0-.12,0-.12-.12a2.27,2.27,0,0,1,0-.35c0-.28.09-.56.12-.85a2.67,2.67,0,0,1,.11-.58.59.59,0,0,0,0-.08l-.3,0-.05,0s0-.06,0-.07a.22.22,0,0,1,.1,0l.24,0c.12,0,.14.06.1.18a1.09,1.09,0,0,0,0,.15c0,.28-.07.57-.11.85s0,.36-.07.55,0,.18.17.18l.31,0c.12,0,.18.06.15.17a.86.86,0,0,1-.1.22.17.17,0,0,1-.19.06l-.77-.09-.53-.06c-.29,0-.31-.14-.16-.37s.1-.13.24-.08l.29.08C32.74,74.44,32.77,74.41,32.79,74.33ZM33,72.76h0ZM30.37,72s0-.08.06-.07l.38.1c.06,0,.07.08.07.15s0,.31,0,.47a.14.14,0,0,0,.1.13l.53.15a.15.15,0,0,0,.11,0,1.22,1.22,0,0,0,.34-.41.12.12,0,0,1,.17-.07l.25.07c.1,0,.11.1,0,.17l-.43.46-.52.6-.53.59-.06.05a.11.11,0,0,1-.19-.06.49.49,0,0,1,0-.11q-.06-.43-.11-.87a.26.26,0,0,1,0-.08h0c0-.07,0-.13,0-.2s0-.32-.06-.48a.41.41,0,0,1,0-.09h0l-.06-.34v0l0-.11Zm5.51-4h0Zm-.2.32h0Zm.89-1v0l0,0,0,0Zm.17.17h0Zm4.07-2.08h0Zm-.09,0h0l0,.07h0Zm0,.27h0v0h0A.13.13,0,0,1,40.66,65.79Zm0-.13h0Zm0,.2h0Zm-1.12.62h0Zm-.08.15h0v0h0v0Zm-.08-.06h0v.09s0,0,0-.09Zm-.23-1.19h0Zm-.06-.1h0Zm0,1.5h0Zm0-1.57a.1.1,0,0,1,0,0h0v0Zm.17-1.74h0Zm.89-1h0Zm0-.16v0l0,0,0,0Zm0,.28h0Zm.13-.45,0-.09.06,0a.06.06,0,0,1,0,0Zm.18-.21h0l0,0,0,0h0c0,.05,0,.07-.07.1Zm-.07.22h0v0h0v0h0l0,0Zm0,.11h0s0,0,0,0h0Zm-.15-.42h0v0h0v-.06h0l0,.05h0v0h0l0,.06h.06l0,0h-.08L40,62v0ZM40,61.74s0,0,0,0l0,0v0Zm0,.33h0Zm-.24.42h0Zm.1-.1h0s0,0,0,0h0Zm0-.51v0h0v0Zm0-.19,0,0h0a.17.17,0,0,1,0,0Zm0,.34s0,0,0,0h0v0Zm0-.47h0Zm0-.42h0Zm.08.3-.17,0C39.86,61.36,39.86,61.36,39.94,61.43Zm-.14.22h0Zm-.05-.9h0l.05-.08c0,.08,0,.08-.05.08h0Zm.12,1.4c-.05,0-.05,0-.14,0Zm-.14.63h-.05s0,0,0-.06h.07S39.73,62.76,39.74,62.78Zm0-1.42h0Zm0-.85h0Zm0,1.38h0Zm0-.93h0v0Zm0,.28h0Zm0-.44h0Zm0,1.76.08,0,0,.05h0S39.61,62.57,39.62,62.56Zm0-2.48v0h0l0,0Zm0,2.14h0Zm0,.49,0,0,0,0,0,0Zm0-.12,0,0,0,0h0Zm-.06-2.19v0h0v0Zm0,.44,0,0h0v0l0,0a0,0,0,0,1,0,0h0Zm0,1.9h0s0,0,0,0h0Zm0-1.59v0h0v0Zm0,1.72v0h0a.17.17,0,0,1,0,0Zm0-.22h0v0h0Zm-.09-2.86v0h0l0,0v0H39.3v0h0Zm-.1.08h0a.16.16,0,0,1,0,0h0A.16.16,0,0,1,39.19,59.89Zm0,3.17h0v0h0Zm0-.19v0h0v0Zm0,.35,0,0h0l0,0Zm-.14.16h0Zm-.05.13h0Zm-.07-3.85h0ZM38.8,64.1h0Zm0-4.25h0Zm-.1,4.5h0Zm-.15-.12h0Zm0,.44h0Zm0-.22h0Zm0-.38h0Zm0-4.43h0v0Zm0,.3h0Zm0,3,0,0h0l0,0Zm-.07-3.32h0Zm0,4.4c0-.06,0-.08.07-.06h0l-.07.06h0v0a.12.12,0,0,1,0,0l0,0v0h0Zm0-4.29h0v0Zm0,.26h0Zm-.07,4.31h0l0,0Zm-.06-.15h0Zm0-.11h0Zm-.05-4.32h0Zm-.25,4.6h0Zm.1.24a.15.15,0,0,1,0,0h0v0Zm0-.7h0Zm0,.24.06.06,0,0-.05-.06Zm0,.27v0l-.07,0v0Zm-.12-.58h0l0,.09h0Zm0,.18h0l0,0h0ZM38,59.78h0Zm-.06,4.3h0v0h0S37.91,64.07,37.9,64.08Zm0-.57h0Zm0,.37h0v0l0,0s0,0,0,0l0,0Zm-.05-.11h0l0,0h0Zm0-4.24h0Zm-.38,5,0,0h0a.12.12,0,0,1,0,0Zm.3-.6h0V64h0V64Zm-.12-4.59v0h0a.15.15,0,0,1,0,0Zm-.07,4.72.05,0h0s.07,0,.1,0l-.1,0h-.07Zm0,.1h0Zm0,.18h0l0,0h0v0h0c0,.07,0,.1-.07.1l.07-.1Zm-.12-.12h0l0,0h-.05Zm0-4.8h0Zm0-.19h0s0,0,0,0h0Zm0,5.29,0,0v0h0Zm-.18.2h0Zm.13-.74h0Zm-.06.61v0l-.07,0v0Zm-.08-.19h0Zm0,.58h0Zm0-.75h0Zm0-5.05h0ZM37,65h0Zm0-5.84h0s0,0,0,0h0S37,59.13,37,59.12Zm0,5.74h0Zm-.12.07h0l0,0h0v0h0Zm0-.13h0Zm0,.68h0Zm-.07-.2h0ZM36,59.16h0Zm.49.23h0Zm.12.93h0Zm0,.11v0h0v0Zm-.06.51h0Zm-.18.3h0Zm0,.12h0Zm-.12,3.56v0h0Zm-.09-3.27h0Zm-.35.1h0Zm-.14-.45h0ZM28.73,73.19c.08-.15.15-.31.22-.47s.17-.37.25-.56.13-.32.18-.48,0-.13.17-.08l.21.09c.12.06.14.11.06.22l-.05.08h0c-.06.12-.13.24-.18.36l-.42,1c-.05.12,0,.15.08.19l.33.07c.13,0,.16.11.09.22a.73.73,0,0,1-.1.13c-.09.09-.13.09-.25,0l-1.11-.49-.19-.1c-.11-.07-.12-.12,0-.22a.71.71,0,0,1,.09-.11c.1-.09.18-.08.28,0l.21.15C28.65,73.29,28.68,73.29,28.73,73.19Zm-1-2.55.13.06.67.4c.12.08.13.12,0,.23a6.67,6.67,0,0,0-.63,1,2.94,2.94,0,0,0-.3.68c0,.1-.1.12-.19.07L27,72.88l-.41-.23c-.15-.1-.15-.18,0-.28l.07,0c.12-.07.17-.07.27,0l.21.18c.11.08.12.08.2,0l.18-.31.1-.12a.3.3,0,0,1-.06.23l-.22.37a1.39,1.39,0,0,0-.06.16l-.41-.25s0-.06,0-.1-.06-.06-.1,0l-.16.09.06,0h0a2.22,2.22,0,0,1,.57.32,1.09,1.09,0,0,0,.16.1h0l0,.06c.1-.21.2-.4.3-.59s.19-.33.29-.49l.45-.69a.08.08,0,0,0,0-.12c-.24-.13-.48-.27-.73-.39-.07,0-.17,0-.25,0A.26.26,0,0,1,27.72,70.64Zm.44.5-.72-.25A1.08,1.08,0,0,1,28.17,71.15Zm-.62.47c.07.06.12.18.21.15s.11-.14.15-.21l.13-.21a.2.2,0,0,1,.11-.09.3.3,0,0,1,0,.09l-.26.44a.52.52,0,0,1-.09.11.09.09,0,0,1-.13,0l-.18-.14c-.12-.12-.12-.12-.29,0l.48.27-.08,0a4.32,4.32,0,0,1-.38-.2c-.13-.08-.11-.15,0-.24A.25.25,0,0,1,27.55,71.61Zm-.22-8.06s0,.06,0,.08h0a.16.16,0,0,1,0-.07.51.51,0,0,1,0-.11Zm0-2.37h0v0h0ZM27.56,66l0,.13c-.08-.08,0-.1,0-.13h0l-.05,0h0l-.07.1,0-.13h0l0-.06h0l0,0h0v0h0l0,.06h0l.09,0h0l.06,0ZM27.5,61.4h0l0,0h0l0,0h0Zm0,.12v0h0Zm0,3.76,0,0-.07-.06,0,0Zm.1.12,0,0h0v0Zm0-4.65,0,0,0,0v0Zm.08,6.07v0h0Zm0-.79,0,.19C27.6,66.14,27.59,66.13,27.68,66Zm.26,1.53a1.92,1.92,0,0,1-.24-.7c.11,0,.12.09.14.16s0,.11,0,.17l.09.36Zm-.09-1.27h0l.06.09c-.06,0-.07,0-.06-.09h0c-.09,0-.07-.08-.06-.14s.13.08.06.14Zm.19.22,0,0c0-.06,0-.12,0-.17h0l.05.18Zm.09-1.9-.07,0h.07Zm0,.09h0Zm.05-.33h0s0,.09-.06.07a.07.07,0,0,0-.06,0c0,.09-.07,0-.1,0s-.07,0-.07,0a.76.76,0,0,0-.2-.34h.11s-.1-.05-.07-.12h0c-.06,0-.12,0-.07-.11s0,0,0-.06h0l0,0h0a.69.69,0,0,0,0-.09c0-.09,0-.1.08-.11h0l-.11-.14c.06,0,.17,0,.11.14h0s0,.05,0,.09a.31.31,0,0,0,0,.18c0,.06,0,.07,0,.1h0s.09.05.07.12h0s.1,0,.12.09.1,0,.14.11.08,0,.13.06h0c.06,0,.11,0,.09.09Zm-.59-2.85,0,.08C27.6,61.6,27.6,61.6,27.61,61.53Zm.11.06h0s.07,0,.08,0a1.68,1.68,0,0,1,.2.26.36.36,0,0,1,0,.19c0,.06,0,.07.06,0s0,0,0,0a3.3,3.3,0,0,0,0,.74.28.28,0,0,1,0,.09h0c.07.08.16.16.13.31,0,0-.08,0-.09-.06a.77.77,0,0,1-.08-.18s0,0,0-.07h0a.31.31,0,0,1-.13-.3.77.77,0,0,0,0-.19h0l0,0h0c0-.11.07-.22,0-.31s0,0,0-.06,0,0,0,0-.11-.2-.23-.24h0v0c.07-.06,0-.12,0-.18h0v0h0v0Zm.57-.32h0v0h0v0h0c.07,0,.1,0,.11.07l-.11-.07Zm0,3.55h0Zm0-.12h0Zm0-3.31.08.09h0s0-.07.07,0,.12,0,.17-.05h0v-.07h0v.07h0l.05,0h0l0-.07s0,.1,0,.07h0l-.06.12,0,0,.07,0,0,0c0,.15,0,.3,0,.45a2.68,2.68,0,0,1,0,.41s-.07.06-.11.09,0,0,0,0l.07-.11c-.05,0-.06-.07-.08-.09a.18.18,0,0,1,0-.21l0,0h0c0-.11-.08-.22-.11-.33a.22.22,0,0,1,0-.08h0l0,.06c0-.08,0-.12,0-.18h0l-.07.07Zm.2-.53h0l0,0,0,0h0Zm.08.1h0ZM29,63.24s0,.12.07.18-.21-.09-.24-.22l0,0-.09-.09h0c-.12,0-.1-.15-.15-.24s.15,0,.13.1,0,0,0,0C28.81,63,28.88,63.15,29,63.24Zm-.58.22h0Zm0,.06,0,0c.06.16.26.19.31.37a.51.51,0,0,1-.25-.17A1.52,1.52,0,0,1,28.41,63.53ZM28.7,65h0v0h0Zm0,.17,0,0v0h0ZM28.56,68v0h0Zm.34-.34h0s-.1,0-.13,0a.24.24,0,0,1-.11-.13,1,1,0,0,1-.08-.39.32.32,0,0,1,.1-.2,2.71,2.71,0,0,0,0,.34,1.87,1.87,0,0,0,.07.23c0,.09.09.12.16.14h0v-.07h0l-.07,0a.07.07,0,0,1,0,0l0,0,0,0a.37.37,0,0,1,0,.07h0S29,67.69,28.89,67.71Zm-.15-.9h0ZM29,68.2h0l0,0h0l0,0Zm0-1h0Zm.26,2.7h0Zm.06-1.83h0Zm0-.22h0c0-.05,0-.11,0-.18l.06.15Zm0-1.68h0Zm.12-.3v0h0c-.06,0-.07,0-.07.06a.46.46,0,0,0,0,.12L29.23,66l0,.05h0l.11,0v0h0l-.06,0,0,0h0l-.05,0h0v-.07h0a.19.19,0,0,0,0-.07c0-.06,0-.1.06-.12-.07,0-.11-.09-.17,0a.13.13,0,0,1-.08,0,1.1,1.1,0,0,1-.1-.18s0,0,0-.05a.2.2,0,0,0,0-.07h-.09l0-.18a.12.12,0,0,0,.12-.15h0l-.08,0h-.05s0,0,0,0,.09,0,.1,0h0s.12.07.12.16h0a.33.33,0,0,0,.1,0,.14.14,0,0,1,.13.07,1,1,0,0,1,.16.52h0l0,0Zm-.34-5.62h0Zm0,3.1v0h0v0Zm.07-1,0,0h.05s0,0,0,0Zm0,1.19h0v0h0Zm.12.71h0Zm.11-.09-.08-.1,0,0,.09.09Zm.15.13v0h0v0Zm.34,1.94c0-.06-.14-.1,0-.17,0-.1-.08-.21-.11-.31s-.07-.25-.1-.37a.91.91,0,0,1,0-.11c0-.05,0-.09.08-.06a.51.51,0,0,1,.15.16,1,1,0,0,1,.09.55A1.38,1.38,0,0,1,29.92,66.2ZM30,67h0Zm0-2.25h0Zm.33,5.37v0h0Zm0-3.38a1.23,1.23,0,0,1-.15.14s-.05,0-.08,0h0a.59.59,0,0,1,.26-.2A.2.2,0,0,1,30.4,66.78Zm0-3.36h0Zm0-.21s0-.05-.07-.08-.07-.08,0-.14h0l0,0h0v0h0a.49.49,0,0,1,.24.24,1.07,1.07,0,0,1,0,.14C30.45,63.32,30.39,63.3,30.38,63.21Zm.08,2.52h0Zm0-2.24s0,0,0,0h0l0,0ZM31,66.62h0s0,.08-.1.07l.1-.07h0l.05-.07,0,0Zm.14-.83s0,0,0,.09,0,.08-.07.08a.42.42,0,0,1-.18.33h0c0,.1,0,.21-.18.2a1.32,1.32,0,0,0,.07-.18c0-.08.06-.05.1,0h0a2,2,0,0,1,.25-.52,1.14,1.14,0,0,0,.11-.3h0c0-.06,0-.12.09-.13h0v-.07c0-.07,0-.08.1-.07a1.11,1.11,0,0,1,0,.14h-.06c.06.1,0,.2,0,.3s-.09,0-.07.07S31.12,65.76,31.1,65.79Zm-.3-3.73h0l0,0v0h-.05v.06l-.11-.07h.1Zm.25.21h0l.14.13h0l.09.1h0a.47.47,0,0,1,.07.08.2.2,0,0,1,0,.12s-.05.05-.08.07,0-.06,0-.1-.17-.1-.17-.21,0,0-.05,0a.34.34,0,0,1-.17-.15C31,62.21,31,62.35,31.06,62.27Zm-.15-.09h0Zm.54,2.09a1.66,1.66,0,0,0-.05.31c0,.08,0,.2-.1.24h0l-.07.09c0-.09,0-.09.07-.09h0c0-.1-.08-.18-.07-.28s0-.08,0-.1a0,0,0,0,0,0,0c0-.1,0-.19,0-.29a2.53,2.53,0,0,0-.09-.7h0l0,0h0l0,0h0c.14,0,.15.15.16.26a.68.68,0,0,0,.07.19A.65.65,0,0,1,31.45,64.27Zm0-1.5h0ZM31.26,65h0Zm0,.08h0Zm-.31-2h0Zm0,.67c0-.1,0-.21-.07-.31.13.2.24.41.06.66a1,1,0,0,0-.18.49.05.05,0,0,1-.1,0,.32.32,0,0,1,0-.12,2.05,2.05,0,0,1,.24-.49A.35.35,0,0,0,31,63.73Zm-.25,1h0s0,0,0,0h0ZM30.84,63h0Zm-.06.38,0,0v0h0Zm0,.16a1.22,1.22,0,0,1,0,.17c0,.06,0,.12-.12.15s0-.21.05-.31Zm.49,2.74h0l0,0a.14.14,0,0,1,0-.05h.06c0-.1.06-.15.12-.22C31.33,66.14,31.35,66.25,31.24,66.31Zm.15-.3a.05.05,0,0,1,0,0c0-.09.06-.13.12-.17h0a.06.06,0,0,1,0-.09l0-.07h0a.3.3,0,0,1,0-.11,1.66,1.66,0,0,1,.1-.28c0,.1,0,.19,0,.28s0,.07-.08.1h0c.06.07,0,.11,0,.16h0c0,.1-.06.14-.08.21Zm.17-3.1h0v0h0Zm0,3.77,0-.05h0a.23.23,0,0,1,0,.05Zm.12-.05,0,0h0l0,0Zm.12,3.06h0Zm0-3.1h0s0,0-.06,0,0,0,0-.06l.05,0h0l0,0Zm.15-.16-.07.06-.08-.05s0,0,0,0l.1,0H32Zm0-.93c0,.19-.07.31-.16.45l-.24.38a.11.11,0,0,1-.09,0c.07-.14.16-.29.22-.44a2.7,2.7,0,0,0,.19-.68.78.78,0,0,1,.13-.44h0v-.07h0v.07h0s0,0,0,0A2.21,2.21,0,0,1,31.93,65.49Zm-.27-.42h0Zm.1-.31,0,0s0,0,0,0l0,0S31.75,64.76,31.75,64.76Zm.11-1.39v0h0l0,0Zm0-.15h0Zm0,.45h0v0h0Zm0,.63h0Zm0,.2h0v0h0Zm.05-.33h0Zm.12-.1v0h0v0h0l-.05,0h0l0,0h0l0,0h0L32,64v.07h0Zm-.1-.34h0Zm0-.21h0l0,0h0Zm.19,2.8h0v0h0Zm0,3.45h0Zm0-5.85h0Zm0,2.32v0l0,0v0Zm.16-.17H32.2l0,0h0c0,.06,0,0-.06,0h0l.06,0h0l0,0,.05,0h0s0-.08.1-.09h0l0,0h0v0h0l0,.05S32.32,66.1,32.3,66.1Zm-.13-1.69h0Zm.07-1.05h0Zm0,1.16h0Zm.15,1.5h0Zm.11,3.85h0Zm-.11-4h-.08l0,0h0l0,0h0c.05-.06.06-.16.14-.21l.08.12ZM32.36,64h0v0h0Zm.09-.25h0Zm0-.28h0Zm0,.13h0Zm.15,2,0,0s0,0,0,0h0l0,0Zm.06-.16s0,0-.06,0,0,0,0-.06,0,0,.06-.06a.42.42,0,0,1,0,.11A.07.07,0,0,1,32.64,65.51Zm0-.53h0v0h0Zm-.1-.41a.7.7,0,0,0-.11-.21.23.23,0,0,1,.06-.35c0,.22.12.36.18.54a.45.45,0,0,1,0,.23h0A.29.29,0,0,1,32.59,64.58Zm0-.63h0s-.07-.08,0-.18Zm-.05-.25h0Zm0-.24v0h0Zm.1.14a.13.13,0,0,1,0,0h0v0Zm.08-1a.85.85,0,0,1,0,.2,1.07,1.07,0,0,1,0-1.31h0c0,.09,0,.19-.06.28A1.28,1.28,0,0,0,32.67,62.61Zm.15,3.61,0,0h0l0,0Zm0-1.19h0Zm0-.08h-.06s0,0,0,0h.08S32.83,64.94,32.83,64.94Zm.05,4.53h0Zm.06-3.53v0h0v0Zm0-1.62h0Zm0-.09h0Zm0,.25a.14.14,0,0,1,0,0h0a.17.17,0,0,1,0,0Zm.06-.47h0s0-.06,0-.07l0,.07h0c.07.07,0,.07,0,.1l0,0,.06-.08Zm.14.73s0,0,0,0h0l-.06,0v0Zm0-1.17h0Zm-.06,1.53v0h0a0,0,0,0,1,0,0Zm0,.1h0Zm0-1.08v0h0v0Zm0,.13h0l0-.06h.05A.15.15,0,0,1,33.14,64.25Zm0,.38,0,0,0-.05,0,0Zm-.07,5v0h0v0ZM33,65.71h0l0,.05h0l0-.07h0l.08-.12h0l0,.11Zm.09,3.81c.05,0,.1,0,.14,0Zm.08-4.06v0h0a.19.19,0,0,1,0,0Zm0,.49h0Zm.06,3.37h0Zm0-3.7h0Zm.06-.11c0-.07.07-.14,0-.17s.1-.06,0-.11,0-.07,0-.11,0-.16-.06-.26.07,0,.1,0a.42.42,0,0,1,.15.42s0,.05,0,.08S33.37,65.48,33.29,65.51Zm-.08-1.23h0Zm.11.56h0ZM33.41,66h-.07v0h.07Zm0,3.28h-.06v0l.05,0h0Zm0-.22h0l0,0h0v-.05h0Zm0-3.22h0Zm.11,3.44h0Zm0-.11h0Zm0-.1v0h0v0h0v0h0v0Zm.06-3.53,0-.05h0l0,0,0,0h0l0,0s0,0,0,0h0v.05Zm0-.25h0l0,0h0v0h0s0,0,0,0h.05v0Zm0,3.93h0Zm0,.23,0-.07h0l0,.07Zm0-.53h0Zm0,.32v0h0a.13.13,0,0,1,0,0Zm0-4.07h0c0,.05-.07,0-.1,0s-.06-.06-.05-.07,0-.17-.07-.25l0-.06a.3.3,0,0,1,0-.05l-.06,0h0v0h0v0h0a.37.37,0,0,0,0-.1s0,0,0-.07.07-.1.15-.14l0,.1h0l0,.14h0l0,0a.37.37,0,0,1,.09.17.77.77,0,0,1,0,.18s0,.07.07.11h0Zm-.25-1.37.07,0v0l-.07,0Zm.19.27h0Zm.14-.45v0h0v0Zm0,5.6h0Zm0-.13v0h0Zm0-.14v0h0v0Zm.12.27h0Zm0-.09h0l0,0h0l0,0h0l.05-.07h0l0,0h0v0h0S34.08,69.2,34,69.17Zm0-.25h0l0,0h0v0h0l0,0h0v0Zm0-5.47h0Zm0-.16h0ZM34.09,69h0Zm.24-.42h0Zm0,.22h0Zm.07-.08h0Zm0-5.72h0Zm.09,6h0Zm0-.09h0l0-.05,0,0,0,0Zm.06-.37h0Zm.44.39h0s0-.06,0-.09l0,0h0a.1.1,0,0,1,0,0A.54.54,0,0,1,35,68.9Zm.23-6.47h0l0,0h0v0h-.09l-.06,0h0l-.1,0s0,.07,0,.1h0c0,.08,0,.07-.09,0a.34.34,0,0,1-.09-.15c0-.15,0-.31-.07-.46a2.68,2.68,0,0,0-.13-.44.19.19,0,0,0-.16-.12l-.06,0c-.09-.05-.09-.05-.2,0s0-.11,0-.12.15,0,.21.11v-.14a.63.63,0,0,1,.54.31.94.94,0,0,1,.1.29.69.69,0,0,0,0,.25c0,.08-.07.08-.08.13l.13.05v0H35l.09.1h0l.06,0h0l.12-.14C35.36,62.38,35.3,62.4,35.26,62.43Zm-1-1.15h0l0,0h0Zm1.29,7h0Zm-.77-8.08-.12,0S34.71,60.2,34.74,60.25Zm-.28.19h0v0h0Zm-.28-.19h0Zm.17.61c.1,0,.16,0,.17-.13l.06.07a.22.22,0,0,0,0-.28c.06,0,.1,0,.13,0a1,1,0,0,1,.38.29c.1.14.13.3.22.44a.66.66,0,0,1,.1.47c0,.06,0,.13.06.19h0l0,0v0h-.06s-.15,0-.09.14h0l0,.09c-.11,0-.11-.09-.09-.15s0-.13,0-.19a.54.54,0,0,0,0-.2.86.86,0,0,0-.55-.53h0a.47.47,0,0,0-.44-.06h-.06C34.2,60.89,34.26,60.84,34.35,60.86Zm-.24-.38h0Zm.06,1.62.1.1h0a.26.26,0,0,1,.2.07l0,0c-.06.13.11.25,0,.38h0a.25.25,0,0,1-.06.19h0l0,0h0v0h0l-.07,0,.13-.17h0c-.13,0-.13,0-.14-.17a.13.13,0,0,0,0-.09.89.89,0,0,1-.3-.35h0A.1.1,0,0,1,34.18,62.1Zm-.12-2h0ZM34,61a0,0,0,0,1,0,0h0s0,0,0,0Zm-.15,1.53a.62.62,0,0,1,.23.65s0,.07-.06.05,0,0,0-.06,0-.27-.09-.38l-.19-.24A.1.1,0,0,1,33.89,62.5Zm-.47-.12,0,0h-.05Zm0,.55h0ZM33,62.46v0h0l.16.06a.81.81,0,0,1,.09-.1.09.09,0,0,1,.07,0s0,0,0,0,0,.2,0,.3l-.13.08,0,0a.15.15,0,0,0-.07,0,1.17,1.17,0,0,0,.05.14.15.15,0,0,0,.06.06c.11.05.11.05.1.19l.07,0,.07-.06c0,.1-.12.16,0,.24s.11-.11.21-.07l-.12.14h.09c.08,0,0,0,0,.09l.1,0c.09,0,.05.07,0,.1s0,0,0,.07-.11.09-.2,0-.06,0-.09,0l.1-.08-.21,0v-.13l0,0a.09.09,0,0,1-.06,0s0-.09-.12-.09a2.4,2.4,0,0,0-.27-.48s0,0,0,0l.11.12,0-.12a.16.16,0,0,1-.13-.12c.05,0,.1,0,.09-.06l-.05,0c-.07,0,0-.06,0-.09h0s-.06-.07,0-.11h0v0h0v0h0l0,.06h0l.06,0h0v0h0Zm0-.1h0a.13.13,0,0,1,0,0h0Zm-.29-2.86h0Zm-.75.71a1.24,1.24,0,0,1,.26-.54.41.41,0,0,1-.06.43l-.16.24S31.89,60.26,31.9,60.21Zm.06.22h0Zm-.65-1.1v0h0Zm-.2,1.53h0l0,0h0v0Zm-.09.28h0v0h0Zm.08.13a.29.29,0,0,0,.17,0l.46-.12h0v0h0l0,0v0h-.05v0h0l0,.12c.1,0,.1,0,.16-.12s0-.07.14-.06.18-.16.1-.32.09,0,.09.06a.56.56,0,0,1-.1.41,2.09,2.09,0,0,0-.12.18s0,.05,0,.05-.08,0-.07.06.06,0,.09,0h0A.44.44,0,0,1,32,62a.77.77,0,0,0,.06.48,1,1,0,0,0,.07.16s0,0,.06,0,0,0,0-.07-.06-.22-.09-.32a.71.71,0,0,1,0-.45.14.14,0,0,0,0-.15c0-.05,0-.08.05-.06s0-.1,0-.12c.19-.15.22-.39.33-.57s.09-.11.12-.17a.42.42,0,0,1,.11-.17s0-.09,0-.13,0-.11.1-.24a.44.44,0,0,1,0,.36,2.54,2.54,0,0,1-.29.55c-.07.12-.16.23-.23.35a1,1,0,0,0-.14.71,1.2,1.2,0,0,1,0,.4.76.76,0,0,0,.16.5s0,.06,0,.09h0s.07,0,.07,0,0-.11,0-.18a.63.63,0,0,1,.21.37c0,.06,0,.1-.06.13h0l0,0a.11.11,0,0,1,0,0l0,0s0,0,0,0h0l-.06-.08h0l-.18,0v-.12l.19.07h0c0-.11,0-.12-.12-.13s-.05,0,0-.05h0c-.09,0-.12,0-.18.1s-.09-.14-.12-.21a.2.2,0,0,0-.14-.13s-.07-.06-.09-.11-.11-.27-.18-.39a3.88,3.88,0,0,0-.27-.4s-.08,0-.12-.06l-.1-.25c0-.09.13,0,.13-.12s.06-.11.11-.2a1.48,1.48,0,0,1-.34,0,.81.81,0,0,1-.26-.11.37.37,0,0,1-.21-.21h.05A1.23,1.23,0,0,0,31.1,61.27Zm.94.33,0,0s0,0,0,0h0Zm-1.53-2.25a.27.27,0,0,1,0-.07s0-.07,0-.08.06,0,.07.06,0,0,.08.06l.05,0s0,0-.06,0Zm-.1,2c.21.1.27.33.45.49l-.23.11c-.1-.16-.13-.36-.26-.49S30.38,61.36,30.42,61.33Zm-.11.06a.13.13,0,0,1-.21,0,.72.72,0,0,1-.2-.37C30.14,61,30.21,61.22,30.31,61.39ZM30,64h0Zm-.12-1.5h0v0h0Zm0,1.91s.07,0,.07,0a.35.35,0,0,1,0,.13s.1,0,0,.1h0c-.06,0-.1,0-.14-.06a.84.84,0,0,0-.16-.22.24.24,0,0,1-.06-.17c.09,0,.17,0,.17.13S29.87,64.39,29.89,64.4Zm-.16-2.16h0v0h0Zm.08.12h0Zm-.07-.78-.1-.45A.31.31,0,0,1,29.74,61.58ZM29.65,61s0,0,0,0-.09-.15,0-.2h0A1.06,1.06,0,0,1,29.65,61Zm-.09-.33s0,0,0,0l0,0,0,0Zm-.07,1.93s0,0,0,.06h0v0a.13.13,0,0,1,0,0l0,0s0,0,0,0h0l-.13,0h0l-.11,0a.09.09,0,0,0,0,0,.87.87,0,0,1,0-.24.45.45,0,0,0,0-.25.2.2,0,0,1,0-.25s0,0,0-.14a.17.17,0,0,1,.15.15c0,.17,0,.35,0,.52S29.41,62.59,29.49,62.61Zm-.11-1h0Zm-.83-1.94h.06l0,0h0l.26,0s.07,0,0,.06l.05,0c.06,0,.12.05.13.13a.12.12,0,0,0,0,.06s.17,0,0,.13h0c.09.07,0,.1,0,.14h0c.06,0,.11,0,.1.11a.78.78,0,0,0,0,.17,1.81,1.81,0,0,1,0,.94.09.09,0,0,1,0,.13.7.7,0,0,0,0,.12h0c-.09,0-.06-.08-.07-.12s-.09-.17,0-.24c0-.08,0-.16,0-.24s0-.19,0-.28a.94.94,0,0,0-.09-.26.26.26,0,0,1,0-.33h0a1.5,1.5,0,0,0-.37-.41s-.06-.08-.12,0h0s-.1,0-.06-.08h0l0,0h-.06Zm-.13,0h0Zm0,.36v0L28.32,60v0Zm-.09-.45h0v0Zm0,.11h0Zm-.27.15h0Zm0,.37a.52.52,0,0,1,.15.07.69.69,0,0,0,.15.07.41.41,0,0,1,.21.29h0c-.1.06-.11.05-.18-.08h0l-.08,0c-.07,0-.13-.06-.11-.16l0,0h0c-.11,0-.07-.07-.11-.09Zm-.14-.47h0Zm-.18.33,0,0v0l-.06,0-.05-.05Zm.07.64a.32.32,0,0,0,.19.1.12.12,0,0,1,.09.08c0,.11.1.15.18.21s0,0,0,0-.12,0-.25-.17a.53.53,0,0,0-.32-.18l-.07,0C27.69,60.7,27.74,60.68,27.8,60.74Zm-.32-.44h.08l0,0v0h-.06l0,0,0-.05h0ZM27.4,60h0Zm-.09,0h0Zm.17.61h0v0h0l0,0h0c-.1,0-.11-.1-.2-.13C27.4,60.54,27.41,60.54,27.48,60.65Zm-.23,4.42h0Zm0,.7h0s0,0,0,0h0S27.23,65.77,27.23,65.76Zm.08,3.59h0l-.17-.11v0l.09.06Zm-.42-3.9h0c-.09,0-.11-.07-.15-.13h0a.83.83,0,0,1-.11-.13.49.49,0,0,0-.16-.19.22.22,0,0,1-.1-.21l0,0c0,.11.13.16.2.23a.36.36,0,0,1,.12.29h0l.1-.05s0,.13.07.08l0,.1h0c.07,0,.1.14.2.14a1,1,0,0,1,0,.19C27,65.65,26.93,65.58,26.88,65.45ZM27,69.11v0h0v0ZM26.86,69h0Zm-.17-.16h0l-.05,0h0Zm.5-3.7h0Zm0-.14s0,0,0,0l-.06.08,0,0ZM27,65v0h0l0,0Zm0-3.39v0l0,0v0ZM27,64.81h.05v0H27Zm-.07-3.53h0Zm-.2-.2h0v.08h0Zm0-.11,0,0a.19.19,0,0,1,0,0l0,0A.28.28,0,0,1,26.7,61Zm-.13,2.91h0c0,.07,0,.16.09.2s0,0,0,0a2.88,2.88,0,0,0,.24.53c0,.05.07.12,0,.15h0a.68.68,0,0,1-.12-.08.88.88,0,0,1-.27-.61c0-.07,0-.13,0-.2s0-.09,0-.09.07,0,.08.07h0Zm0-.14c-.14,0-.14,0-.12-.16S26.51,63.68,26.57,63.73Zm-.13-.35h0l0,.08h0Zm-.1-2.93a1.46,1.46,0,0,1,.05.58h0l0,0a.13.13,0,0,1,0,0l0,0a.05.05,0,0,1,0,0h0s0,0,0,0a1.57,1.57,0,0,1-.06-.18,2.15,2.15,0,0,1,0-.27A.2.2,0,0,1,26.34,60.46Zm-.18,3.89a.16.16,0,0,1,0,0h0v0ZM26,60.3s.05,0,.08-.06h0l-.05,0h0l0-.14a.15.15,0,0,1,0,.18h0l0,0h0l0,0h0c0,.1,0,.2,0,.3a.17.17,0,0,1-.07.18A.58.58,0,0,1,26,60.3Zm.07.49h0Zm-.15,7h0Zm-.31-.44,0,.08h0l0-.09Zm-.18-7.65h0a.68.68,0,0,1,.09-.48h0a1.09,1.09,0,0,1,0,.25c0,.12,0,.26-.06.37s0,.08,0,.13-.08-.12,0-.27Zm0,1.21h0l-.06-.13h0s0,.09,0,.14h0l0,.14c-.06,0-.05-.09,0-.14Zm0-.33h0v0Zm0-.51h0l0,0h0v0h0l0,.16h0s0,0,0-.06a.47.47,0,0,1,0-.11Zm0,.21c0,.07,0,.13,0,.19s0,0,0,0h0C25.34,60.45,25.25,60.38,25.37,60.31ZM25.19,71.4c.13-.19.2-.19.33,0l.09.11A.24.24,0,0,0,26,71.4a.42.42,0,0,0,0-.28l-.16-.39a.61.61,0,0,1,.59-.82,1,1,0,0,1,.7.38.12.12,0,0,1,0,.15.83.83,0,0,1-.22.29c-.06-.06-.11-.11-.09-.2h0v0h0l-.08-.09a.29.29,0,0,0-.35-.08.27.27,0,0,0-.12.35c0,.09.08.18.11.27s.06.14.08.21a.63.63,0,0,1-.24.76.68.68,0,0,1-.83,0,1.77,1.77,0,0,1-.21-.2.18.18,0,0,1,0-.26Zm-.06-4.72v0h0l0,0Zm-.64,1.21a1.17,1.17,0,0,1-1.32,1.94,1.11,1.11,0,0,1-.34-1.59A1.15,1.15,0,0,1,24.49,67.89ZM24.12,64h0v0h0a.41.41,0,0,1,0-.32h0l0,0h0v.05h0s0,0,0,0A.55.55,0,0,1,24.12,64Zm.08.41h0v0h0v0Zm0-2.92a.69.69,0,0,1,.05-.11c.05.12,0,.21,0,.31a7.71,7.71,0,0,0-.15.9.88.88,0,0,1,0,.14h0c0-.07,0-.14,0-.21A4.87,4.87,0,0,1,24.21,61.5ZM24,63v0l0,0Zm0,.13v.09h0v.12h0l0,.12c-.07,0-.06-.07,0-.12h0v-.07h0v0h0l0-.09Zm-1.39,3.89.08,0a2.84,2.84,0,0,0,.54-.41c.11-.13.17-.12.27,0l.1.15c.08.13.07.17-.07.24a3.13,3.13,0,0,0-.32.18c-.28.2-.55.4-.82.61s-.28.25-.42.38a.13.13,0,0,1-.21,0l-.06-.08-.49-.71a.92.92,0,0,1-.08-.18.09.09,0,0,1,.06-.13l.08,0c.24-.05.31,0,.39.2a1.24,1.24,0,0,0,.08.2c.05.11.11.12.21.06l.33-.21c.06,0,.08-.08,0-.15s-.15-.22-.23-.34a.34.34,0,0,1-.05-.1c0-.05,0-.11.06-.11a1.51,1.51,0,0,1,.29,0s.06.05.08.09.07.17.11.25Zm-.88-3.83.05.1c.09.19.09.2-.08.33a3.84,3.84,0,0,0-.28.27.13.13,0,0,0,0,.15l.2.5a.18.18,0,0,0,.18.11l.44,0c.13,0,.14,0,.19.1a1.28,1.28,0,0,1,.1.24c0,.1,0,.13-.11.12l-.53,0-1.09,0-.63,0a.13.13,0,0,1-.1-.22l.47-.52.79-.86c.07-.08.12-.16.19-.24S21.72,63.12,21.79,63.23ZM19.1,61A1.64,1.64,0,0,0,20,60.9l.73-.15a1.92,1.92,0,0,0,.29-.1c.12,0,.16,0,.2.09a1.43,1.43,0,0,1,.06.27c0,.1,0,.13-.12.13a3.75,3.75,0,0,0-.94.18L20,61.4l.21.14.47.25c.13.07.15.12.06.24l-.34.45-.12.18.28,0,.68-.16a1,1,0,0,0,.19-.08c.11-.05.15,0,.19.06a1.91,1.91,0,0,1,.06.3.09.09,0,0,1-.09.12h0a9,9,0,0,0-1.26.28l-.35.08a.27.27,0,0,0-.19.13l-.06.08c-.08.07-.16.06-.19,0a1.7,1.7,0,0,1-.08-.35.24.24,0,0,1,.06-.16l.68-.78s.07-.12.12-.07,0,.11,0,.15l-.55.67a.36.36,0,0,0,0,.07h0l-.18.13.07.34,0,0c0-.17.13-.21.27-.25l1.35-.32c.11,0,.23,0,.38,0,0-.06,0-.11-.05-.17s-.06-.15-.16-.08a1.73,1.73,0,0,1-.55.18l-.55.13c-.21.06-.24,0-.23-.18h0s0,0,.05,0a3.89,3.89,0,0,1,.37-.48l.13-.22-.1-.05-.23-.12-.5-.25c-.09,0-.08-.15,0-.18a3.52,3.52,0,0,1,.44-.12l.93-.18c0-.09,0-.16-.07-.26l-.25.09-1,.25a3,3,0,0,1-.39.09c-.13,0-.27.06-.38-.08,0,.09,0,.18,0,.27s.05.07.07.07a.81.81,0,0,1,.36.12l.59.27.18.11a.16.16,0,0,1-.19,0l-.72-.32a.71.71,0,0,0-.17-.06.21.21,0,0,1-.18-.18,1.68,1.68,0,0,1-.05-.25C18.95,61,19,60.94,19.1,61Z"/><ellipse cx="36.18" cy="60.76" rx="0.01" ry="0.01" transform="translate(-33.71 49.98) rotate(-50.46)"/><path d="M35.87,59.87h0s0,0,0,0l0,0Z"/><path d="M22.7,68.85a1,1,0,0,0,.34.77,1.1,1.1,0,0,0,1.77-.44,1.12,1.12,0,0,0-.06-.84c0-.06-.06-.12-.14-.11l0,0h0v0h0a.5.5,0,0,0-.05-.09,1.43,1.43,0,0,0-.25-.2.75.75,0,0,0-.42-.14A1.17,1.17,0,0,0,22.7,68.85Zm2-.52v0h0l0,0Zm-.35-.25a.78.78,0,0,1,.24,1,1.1,1.1,0,0,1-.69.66.75.75,0,0,1-.93-.6,1,1,0,0,1,.3-.85.89.89,0,0,1,.65-.3A.71.71,0,0,1,24.33,68.09Z"/><path d="M40.54,62.38h0a.08.08,0,0,0,0-.13v.11h0Z"/><path d="M40.22,63l0,.12s-.09,0-.08-.07a.56.56,0,0,0,0-.09H40.1l0,.09L40,63a.17.17,0,0,1-.14.1l.06,0a.19.19,0,0,1,0,.06h0c0,.1,0,.09-.09.09a.76.76,0,0,1,.08.14s0,.07-.06,0l.05.09c-.08.07-.08.07-.11.22h0c-.05,0-.1.09-.08.16s.1,0,.15,0S40,64,40,64s.1,0,.12,0a.22.22,0,0,1,0,.09l.18.06c.08-.08,0-.08,0-.13h0l0,0h0v.05h0s.06,0,.07,0a.17.17,0,0,1,.17-.08l.05,0-.06-.08h0l-.12.05c0-.08,0-.1.09-.11h0l-.09,0s0,0,0-.07h0l0-.15c0,.06,0,.11,0,.15h0l.12,0v.14h0l0,.06h0l.07-.05,0-.1.06,0h0l.11-.15-.13.08c0-.1.1-.19,0-.25s0-.07,0-.1l-.12,0h0s-.07,0,0,.1h0l-.09,0a.44.44,0,0,1,0-.08s.06,0,.08,0h0s.09,0,.09-.09S40.5,63,40.48,63a.63.63,0,0,0-.14.08l-.12-.1h0Zm-.19.34h0Zm.07.18v0h0Zm0-.27h0v0h0Zm0,.46h0Zm.37-.35h0Zm-.06.12h0a.05.05,0,0,1,0,0h0Zm-.1-.12v0h0a.12.12,0,0,1,0,0Zm.1-.28h0Z"/><path d="M39.26,63.36h0v0h0s.05,0,0-.06h0Z"/><path d="M40.48,61.83l.13-.05s.07-.13,0-.19a.34.34,0,0,1,0-.07l-.14,0,0,0,0,.09c.09,0,.08,0,0,.09l0,0h0s-.06,0,0,0a.21.21,0,0,0,.05.05h0Z"/><path d="M27,70.47c.06-.07,0-.12,0-.18a1,1,0,0,0-.37-.23.53.53,0,0,0-.6.12.47.47,0,0,0-.13.5c0,.14.1.27.16.41a.56.56,0,0,1,0,.43.32.32,0,0,1-.49.16,3.22,3.22,0,0,1-.27-.24l-.05.05-.06.07a.62.62,0,0,0,.56.34.54.54,0,0,0,.49-.22.48.48,0,0,0,.1-.52c0-.12-.11-.24-.15-.36a.93.93,0,0,1-.06-.27.32.32,0,0,1,.16-.3.36.36,0,0,1,.38,0,.23.23,0,0,1,.16.21h0v0h0l.07.09A1.17,1.17,0,0,1,27,70.47Zm-1,.3h0Zm-.42,1h0Z"/><path d="M23.85,69.58a1.06,1.06,0,0,0,.74-.8.63.63,0,0,0-.66-.73.94.94,0,0,0-.67.39,1,1,0,0,0-.14.63A.63.63,0,0,0,23.85,69.58Z"/><path d="M40.12,62.88l-.05,0h0l-.13,0,.15.06h0l0-.05h0Z"/><path d="M42.32,70.85h0v0Z"/><path d="M28,64.32h0l0,0Z"/><path d="M28.22,73.2s-.08,0-.09,0-.07.08-.15.08l.22.1.57.25.46.21c.19.08.2.08.28-.08L29,73.63c-.1,0-.12-.07-.09-.17s.12-.29.19-.43l.18-.37c.08-.18.15-.36.23-.53a2.46,2.46,0,0,1,.13-.22l.07-.11-.15-.08-.12,0a4.6,4.6,0,0,1-.15.47c-.18.41-.36.82-.55,1.22,0,.08-.11.13-.18.08s-.21-.07-.28-.17S28.25,73.22,28.22,73.2Z"/><path d="M44.73,70.13,44.67,70h0v0h0Z"/><path d="M28,64.46s.08-.07,0-.11S28,64.43,28,64.46Z"/><path d="M34.44,62.36a.15.15,0,0,0,0,0h0a.18.18,0,0,0,0,0Z"/><circle cx="28.65" cy="62.01" r="0.01" transform="translate(-32.9 32.4) rotate(-39.51)"/><path d="M30.75,74.27a.25.25,0,0,0,0,.07L31,74.1l.26-.29.51-.58.49-.52a.37.37,0,0,0,0-.09l-.11,0c-.13,0-.12,0-.2.08l-.29.37a.19.19,0,0,1-.21.06c-.07,0-.13-.06-.2-.08s-.12,0-.18,0h0l-.1,0a.27.27,0,0,1-.22-.29c0-.12,0-.25,0-.37a.14.14,0,0,0-.1-.15.48.48,0,0,1-.21-.11h-.06l0,.11v0a.48.48,0,0,1,.06.34h0s0,0,0,.06q0,.32.08.64a.21.21,0,0,1,0,.07h0s0,0,0,.05Zm.24-1.2.3.08.09,0v0h-.07l-.16,0c-.16,0-.18,0-.16.14l0,.24c.18-.05.22-.25.37-.3l0,0a.48.48,0,0,1,0,.11l-.25.29a.23.23,0,0,1-.07.06.09.09,0,0,1-.13,0,.41.41,0,0,1,0-.11c0-.14,0-.28,0-.42S30.88,73,31,73.07Z"/><path d="M34.94,62.54h0Z"/><polygon points="33.56 64.59 33.55 64.59 33.57 64.59 33.56 64.59"/><path d="M29.21,65.83l0,0v0Z"/><path d="M28.94,65.53l.06,0h0l-.06,0Z"/><path d="M28.63,62.13v0h0v0Z"/><path d="M28.87,65.28l0,0v0Z"/><path d="M28.61,61.6h0v0Z"/><polygon points="28.53 61.72 28.52 61.73 28.53 61.73 28.53 61.72"/><circle cx="29.29" cy="65.74" r="0.01" transform="translate(-30.67 25.93) rotate(-32.4)"/><path d="M31.29,62.51l0,0,0,0Z"/><path d="M39.46,74.21l0,0,.36-.15s0,0,0,0L39.51,74Z"/><path d="M41.26,73.6h0l.13-.07h0l.12-.11h0v0l-.09,0h0l-.11,0c-.07,0-.16,0-.2,0s0,.13,0,.2h0s.06,0,.09,0Z"/><path d="M32.91,62.54h0l0,.05h0Z"/><path d="M33,62.71H33l.06,0Z"/><path d="M36.15,61.19h0v0Z"/><path d="M31.79,61.75c-.15.1-.15.15,0,.26Z"/><circle cx="31.58" cy="61.41" r="0.01" transform="translate(-28.41 27.21) rotate(-33.1)"/><path d="M38.08,74.53s0,0,.06,0h0v0h0l-.12,0-.23-.07c-.25-.06-.37-.26-.5-.45a.66.66,0,0,1-.08-.34,1,1,0,0,1,.06-.47.84.84,0,0,1,.72-.56c0,.07,0,.09-.06.11a.89.89,0,0,0-.48.41A.82.82,0,0,0,38,74.27c.14,0,.16,0,.15-.15l-.07-.66h0a.35.35,0,0,1,0-.24h0v0s0,0,0,0v-.19h0l0,0h0v0h0v0a.25.25,0,0,1,0,.17v.06h0c0,.08.07.15,0,.24h0a.31.31,0,0,1,0,.1q.06.4.1.8a.1.1,0,0,1,0,.08.35.35,0,0,1-.1,0h0v0h0a1.1,1.1,0,0,0,.43-.09c0-.21-.08-.41-.12-.61a10.21,10.21,0,0,1-.16-1.26c0-.1,0-.1-.13-.11h0l-.48.11a.94.94,0,0,0-.73.75,1.23,1.23,0,0,1,0,.13.33.33,0,0,1,0,.1,1,1,0,0,0,.36.77.7.7,0,0,0,.4.19A1.5,1.5,0,0,1,38.08,74.53Z"/><path d="M39.92,74s0,0,0,.05l.22,0,0,0s0,0,0,0Z"/><path d="M34.25,73.43l0,.11,0,.06,0,.06h0l.51.35s0,.07.06.11h0a.36.36,0,0,1,.11.37.36.36,0,0,1-.32.22.54.54,0,0,1-.36-.13l0,.1c0,.12,0,.12.11.15a.92.92,0,0,0,.47,0,.56.56,0,0,0,.39-.48.51.51,0,0,0-.27-.48h0l-.21-.14a.52.52,0,0,1-.31-.48h0c0-.05,0-.11.07-.16a.25.25,0,0,1,.2-.14.42.42,0,0,1,.4.12.44.44,0,0,0,.09.06.76.76,0,0,0,0-.15.16.16,0,0,0-.06-.1.82.82,0,0,0-.18-.05h0a.81.81,0,0,0-.44.05.48.48,0,0,0-.33.38.66.66,0,0,1,0,.11h0Zm.69.39,0,0h0l0,0Z"/><path d="M33.13,63.1h0Z"/><path d="M33,62.89l0,0h0Z"/><path d="M33.62,63.62l0,.12.14-.06Z"/><polygon points="33.02 63.12 33.02 63.11 33.01 63.12 33.02 63.12"/><path d="M33,62.63l.07.07S33.11,62.62,33,62.63Z"/><path d="M33.07,63h0l0,0Z"/><path d="M39.91,62.88h0Z"/><path d="M40.92,65.86l0,0h0Z"/><polygon points="40.96 65.42 40.95 65.42 40.97 65.43 40.96 65.42"/><path d="M36.61,67.53c-.05,0,0,0,0,.07Z"/><path d="M40.86,66c0-.08,0-.09-.07-.06Z"/><circle cx="39.41" cy="63.34" r="0.01" transform="translate(-27.88 31.13) rotate(-32.54)"/><path d="M32,70v0h.07L32,70h0Z"/><path d="M36.05,61.19l0,0h0Z"/><path d="M38.73,64.8l0,0,0,0Z"/><path d="M38.78,64.9a.12.12,0,0,0,0,0v0Z"/><path d="M32.83,69.89l0,0h0l0,0h0Z"/><path d="M39.34,63.07v0h0v0Z"/><path d="M39.3,63.56l0,0h0Z"/><path d="M33.13,69.74h0v.11c.09,0,.1,0,.14-.1l-.09,0h0Z"/><path d="M38.85,64.8v0l0,0Z"/><path d="M39.08,64l.07,0v0h-.07Z"/><path d="M39.35,63.66h0v0h0Z"/><path d="M38.95,67l0,0v0Z"/><path d="M37.17,65.42h0Z"/><path d="M38,64.75l0,0h0Z"/><path d="M37.71,64.65h0Z"/><path d="M37.71,65h0v0Z"/><circle cx="37.75" cy="64.93" r="0.01" transform="translate(-18.78 15.48) rotate(-18.65)"/><path d="M37.92,65h0v0Z"/><path d="M37.89,64.63l0,0v0l0,0Z"/><ellipse cx="37.88" cy="64.88" rx="0.01" ry="0.01" transform="matrix(0.63, -0.78, 0.78, 0.63, -36.38, 53.47)"/><path d="M38,64.48c0-.05,0-.1,0-.13S37.94,64.43,38,64.48Z"/><path d="M37.53,65a.29.29,0,0,0,0-.06h0V65Z"/><path d="M37.4,65.16l.09-.09L37.38,65Z"/><path d="M37.37,65v0h0Z"/><path d="M37.56,65.08l0,.07h0l0-.06Z"/><path d="M31.32,70v0h0v0h0l0,0Z"/><path d="M37.66,64.92l0,0v0h0Z"/><path d="M37.56,64.62l0,0,.08,0-.07,0Z"/><path d="M40.78,65.92l0,0h0Z"/><path d="M40.46,61.62l0,0v.06Z"/><path d="M36.4,59.56l-.05,0S36.35,59.6,36.4,59.56Z"/><path d="M35.73,61l.05,0,0,0-.05,0Z"/><path d="M36.4,59.85l.07-.09S36.38,59.77,36.4,59.85Z"/><path d="M36.54,60h0l-.07.12C36.55,60.14,36.54,60.08,36.54,60Z"/><path d="M40.4,63h0l0-.07h0Z"/><circle cx="40.4" cy="62.56" r="0.01" transform="translate(-19.51 18.33) rotate(-20.71)"/><path d="M40.25,61.71l.08,0v0l-.09,0Z"/><path d="M40.52,62.24v0h0Z"/><path d="M35.89,61.09c.07.05.14,0,.21,0S36,61,35.89,61.09Z"/><path d="M36.67,67v0h0l0,0h0Z"/><circle cx="36.04" cy="61.35" r="0.01" transform="translate(-32.12 81.78) rotate(-76.25)"/><circle cx="35.9" cy="61.36" r="0.01" transform="translate(-27.71 93.08) rotate(-86.17)"/><path d="M35.82,61.31h0v0h0A.11.11,0,0,0,35.82,61.31Z"/><path d="M37.51,64.73l-.05.08h0l.19,0s0-.08,0-.1,0-.05,0-.07l-.08.06h0Z"/><path d="M36.06,60.77v-.05l0,0Z"/><path d="M40.41,64.09h0l0,0,0,0Z"/><path d="M39.87,63.12h0Z"/><path d="M39.91,63.21H40l-.05,0Z"/><path d="M36.16,68.06h0Z"/><path d="M39.87,62.92l0,0h0l0,0Z"/><path d="M40.07,65h.07v0Z"/><path d="M39.65,63l-.12,0S39.61,63.06,39.65,63Z"/><path d="M40.3,62.71c.06,0,0-.07,0-.09Z"/><path d="M33.74,69.64l0,.05.06,0h0l0,0h0Z"/><path d="M39.92,62.74h0Z"/><path d="M40.44,64.82l.1.07S40.52,64.74,40.44,64.82Z"/><circle cx="40.58" cy="64.05" r="0.01" transform="translate(-24.84 102.38) rotate(-88.02)"/><path d="M40.66,63.78c0-.1,0-.1-.08-.12Z"/><path d="M35.63,68.52h0v0h0v0Z"/><path d="M35.8,68.32v.07h0l.06,0,0,0h0Z"/><circle cx="40.28" cy="64.34" r="0.01" transform="translate(-28.08 31.34) rotate(-32.18)"/><path d="M39.51,63.19h0s0,0,0,0h0S39.51,63.18,39.51,63.19Z"/><path d="M83.21,40.19a14,14,0,0,0-1.93-4.4,9.85,9.85,0,0,0-3.2-3,8.83,8.83,0,0,0-4.5-1.12,10.34,10.34,0,0,0-5,1,9.35,9.35,0,0,0-2.61,2,3.57,3.57,0,0,0-1.58-1.85A6.93,6.93,0,0,0,61,32.22H55.76v1.61h1.37c1.58,0,2.55.45,3,1.39a9.69,9.69,0,0,1,.67,3.94V69.52H66.3V58a24.18,24.18,0,0,0,2.63,1,13.71,13.71,0,0,0,4.09.54,9.94,9.94,0,0,0,4.83-1.12,10.06,10.06,0,0,0,3.37-3,13.29,13.29,0,0,0,2-4.4,22.7,22.7,0,0,0,0-10.77Zm-5.15,5.39A24.42,24.42,0,0,1,77.68,50a12,12,0,0,1-1.2,3.55,6.59,6.59,0,0,1-2.07,2.34,5.34,5.34,0,0,1-3.06.85,7.08,7.08,0,0,1-2.56-.51c-.85-.33-1.69-.69-2.49-1.07V37.56a9,9,0,0,1,.88-1.13,6.82,6.82,0,0,1,1.21-1,5.79,5.79,0,0,1,1.52-.72,6.7,6.7,0,0,1,2-.27,4.45,4.45,0,0,1,2.72.84,6.85,6.85,0,0,1,1.94,2.34,12.09,12.09,0,0,1,1.15,3.55A26.18,26.18,0,0,1,78.06,45.57Z"/><path d="M109.3,44.18c0-4-.94-7.09-2.79-9.25s-4.76-3.26-8.61-3.26a10.18,10.18,0,0,0-4.8,1.12,11.17,11.17,0,0,0-3.59,3,13.3,13.3,0,0,0-2.25,4.4,18.59,18.59,0,0,0-.76,5.4A19.24,19.24,0,0,0,87.23,51a12.64,12.64,0,0,0,2.25,4.41,11.11,11.11,0,0,0,3.74,3,11.63,11.63,0,0,0,5.24,1.11,11,11,0,0,0,10.25-6l.12-.19-1.5-1.13-.15.22A11.51,11.51,0,0,1,104,55.62a8,8,0,0,1-4.41,1.13A6.17,6.17,0,0,1,96.52,56a6.79,6.79,0,0,1-2.29-2.13,10.37,10.37,0,0,1-1.44-3.29,16.66,16.66,0,0,1-.49-3.93h16.88Zm-17-.25a16.58,16.58,0,0,1,.44-3.71,11.57,11.57,0,0,1,1.2-3.11,6.35,6.35,0,0,1,1.77-2,3.73,3.73,0,0,1,2.2-.71,4.47,4.47,0,0,1,4.19,2.46,15,15,0,0,1,1.42,7.07Z"/><path d="M133.42,52.19l-.15.22a11.35,11.35,0,0,1-3.22,3.22,8.62,8.62,0,0,1-4.66,1.13,6.77,6.77,0,0,1-3.5-.86,7.4,7.4,0,0,1-2.43-2.35A10.78,10.78,0,0,1,118,50a21.24,21.24,0,0,1,0-8.87,10.79,10.79,0,0,1,1.44-3.54,7.41,7.41,0,0,1,2.43-2.35,6.78,6.78,0,0,1,3.5-.86A7.31,7.31,0,0,1,130.23,36a6.88,6.88,0,0,1,2.17,5.09v.23H134v-.25q0-1.56,0-2.71a19.12,19.12,0,0,0-.14-2,5,5,0,0,0-.44-1.53,4.57,4.57,0,0,0-.86-1.18,6.42,6.42,0,0,0-3.22-1.57,24.12,24.12,0,0,0-5-.45,13,13,0,0,0-5.54,1.11,11,11,0,0,0-3.91,3,12.73,12.73,0,0,0-2.3,4.41,19.45,19.45,0,0,0,0,10.79,12.71,12.71,0,0,0,2.3,4.41,11,11,0,0,0,3.91,3,13,13,0,0,0,5.54,1.11,12.73,12.73,0,0,0,6-1.37,11.93,11.93,0,0,0,4.53-4.61l.12-.19Z"/><path d="M143.14,29.38a2.84,2.84,0,0,0,2-.74,2.68,2.68,0,0,0,.77-2,4,4,0,0,0-1-2.67,3.08,3.08,0,0,0-2.39-1.15,2.83,2.83,0,0,0-2,.74,2.68,2.68,0,0,0-.77,2,4,4,0,0,0,1,2.67A3.07,3.07,0,0,0,143.14,29.38Z"/><path d="M146.07,35.75a4.84,4.84,0,0,0-.86-2.17,3.06,3.06,0,0,0-1.7-1.09,10.23,10.23,0,0,0-2.49-.26h-5.27v1.61h1.36c1.58,0,2.55.45,3,1.39a9.67,9.67,0,0,1,.67,3.94V58.93h5.52V39.16A21.21,21.21,0,0,0,146.07,35.75Z"/><path d="M172.93,44.18c0-4-.94-7.09-2.79-9.25s-4.76-3.26-8.61-3.26a10.18,10.18,0,0,0-4.8,1.12,11.18,11.18,0,0,0-3.59,3,13.31,13.31,0,0,0-2.25,4.4,18.63,18.63,0,0,0-.76,5.4,19.2,19.2,0,0,0,.73,5.39,12.63,12.63,0,0,0,2.25,4.41,11.12,11.12,0,0,0,3.74,3,11.63,11.63,0,0,0,5.24,1.11,11,11,0,0,0,10.25-6l.12-.19L171,52.19l-.15.22a11.52,11.52,0,0,1-3.19,3.22,8,8,0,0,1-4.41,1.13,6.17,6.17,0,0,1-3.06-.75,6.79,6.79,0,0,1-2.29-2.13,10.33,10.33,0,0,1-1.44-3.29,16.61,16.61,0,0,1-.49-3.92h16.88Zm-17-.25a16.53,16.53,0,0,1,.44-3.71,11.6,11.6,0,0,1,1.2-3.11,6.32,6.32,0,0,1,1.77-2,3.72,3.72,0,0,1,2.2-.71,4.46,4.46,0,0,1,4.19,2.46,15,15,0,0,1,1.42,7.07Z"/><path d="M26.63,41.68,37,48c.58.34,1.12.68,1.64,1l.26.17c.51.34,1,.68,1.46,1l.12.09c.38.28.74.57,1.08.85h0a19.87,19.87,0,0,1,2.36,2.24l0,0h9.32c0-.17-.06-.35-.1-.52h0c-.08-.35-.17-.69-.28-1a12.15,12.15,0,0,0-1-2.11l-.1-.17A13.13,13.13,0,0,0,51,48.27c-.24-.32-.51-.64-.79-.95l0,0a18,18,0,0,0-2.41-2.19,54.57,54.57,0,0,0-4.68-3.14L32.71,35.66Q30.43,34.28,28.66,33a18.09,18.09,0,0,1-3-2.54,9.11,9.11,0,0,1-1.77-2.75,8.9,8.9,0,0,1-.59-3.36,7.8,7.8,0,0,1,.84-3.61A8.73,8.73,0,0,1,26.36,18a9.71,9.71,0,0,1,3.1-1.72,11.09,11.09,0,0,1,3.61-.6q7.13,0,11.15,3.7t5.45,12.39h1.69V22.58a6.45,6.45,0,0,0-1.69-4.35A14.18,14.18,0,0,0,45.37,15a23.74,23.74,0,0,0-5.87-2,30.73,30.73,0,0,0-6.37-.69,20.49,20.49,0,0,0-6.71,1,14.8,14.8,0,0,0-5.15,3,13.45,13.45,0,0,0-3.33,4.6,14.71,14.71,0,0,0-1.18,6A14.4,14.4,0,0,0,19,35.06Q21.23,38.41,26.63,41.68Z"/><path d="M16.76,53.37h1.88c-.06-.34-.14-.67-.19-1H16.76Z"/></svg>